<svg width="360" height="360" viewBox="0 0 360 360" fill="none" xmlns="http://www.w3.org/2000/svg">
<rect width="360" height="360" fill="#F3F3FB"/>
<g filter="url(#filter0_d_1_2)">
<rect x="82" y="57" width="196" height="247" rx="10" fill="white"/>
<circle cx="180" cy="105.5" r="25" stroke="#1F275E"/>
<path d="M188.625 91H172.375C171.339 91 170.5 91.8395 170.5 92.875V104.125C170.5 105.161 171.339 106 172.375 106H188.625C189.661 106 190.5 105.161 190.5 104.125V92.875C190.5 91.8395 189.661 91 188.625 91ZM188.391 104.125H172.609C172.547 104.125 172.488 104.1 172.444 104.056C172.4 104.012 172.375 103.953 172.375 103.891V93.1094C172.375 93.0472 172.4 92.9876 172.444 92.9436C172.488 92.8997 172.547 92.875 172.609 92.875H188.391C188.453 92.875 188.512 92.8997 188.556 92.9436C188.6 92.9876 188.625 93.0472 188.625 93.1094V103.891C188.625 103.953 188.6 104.012 188.556 104.056C188.512 104.1 188.453 104.125 188.391 104.125ZM175.5 94.4375C174.637 94.4375 173.938 95.1371 173.938 96C173.938 96.8629 174.637 97.5625 175.5 97.5625C176.363 97.5625 177.062 96.8629 177.062 96C177.062 95.1371 176.363 94.4375 175.5 94.4375ZM174.25 102.25H186.75V99.125L183.331 95.7064C183.148 95.5234 182.852 95.5234 182.669 95.7064L178 100.375L176.456 98.8314C176.273 98.6484 175.977 98.6484 175.794 98.8314L174.25 100.375V102.25Z" fill="#1F275E"/>
<path d="M169.76 113.521C170.013 113.561 170.243 113.664 170.45 113.831C170.663 113.998 170.83 114.204 170.95 114.451C171.077 114.698 171.14 114.961 171.14 115.241C171.14 115.594 171.05 115.914 170.87 116.201C170.69 116.481 170.427 116.704 170.08 116.871C169.74 117.031 169.337 117.111 168.87 117.111H166.27V110.141H168.77C169.243 110.141 169.647 110.221 169.98 110.381C170.313 110.534 170.563 110.744 170.73 111.011C170.897 111.278 170.98 111.578 170.98 111.911C170.98 112.324 170.867 112.668 170.64 112.941C170.42 113.208 170.127 113.401 169.76 113.521ZM167.18 113.151H168.71C169.137 113.151 169.467 113.051 169.7 112.851C169.933 112.651 170.05 112.374 170.05 112.021C170.05 111.668 169.933 111.391 169.7 111.191C169.467 110.991 169.13 110.891 168.69 110.891H167.18V113.151ZM168.79 116.361C169.243 116.361 169.597 116.254 169.85 116.041C170.103 115.828 170.23 115.531 170.23 115.151C170.23 114.764 170.097 114.461 169.83 114.241C169.563 114.014 169.207 113.901 168.76 113.901H167.18V116.361H168.79ZM176.523 115.561H173.483L172.923 117.111H171.963L174.483 110.181H175.533L178.043 117.111H177.083L176.523 115.561ZM176.263 114.821L175.003 111.301L173.743 114.821H176.263ZM181.351 117.181C180.891 117.181 180.478 117.101 180.111 116.941C179.751 116.774 179.468 116.548 179.261 116.261C179.054 115.968 178.948 115.631 178.941 115.251H179.911C179.944 115.578 180.078 115.854 180.311 116.081C180.551 116.301 180.898 116.411 181.351 116.411C181.784 116.411 182.124 116.304 182.371 116.091C182.624 115.871 182.751 115.591 182.751 115.251C182.751 114.984 182.678 114.768 182.531 114.601C182.384 114.434 182.201 114.308 181.981 114.221C181.761 114.134 181.464 114.041 181.091 113.941C180.631 113.821 180.261 113.701 179.981 113.581C179.708 113.461 179.471 113.274 179.271 113.021C179.078 112.761 178.981 112.414 178.981 111.981C178.981 111.601 179.078 111.264 179.271 110.971C179.464 110.678 179.734 110.451 180.081 110.291C180.434 110.131 180.838 110.051 181.291 110.051C181.944 110.051 182.478 110.214 182.891 110.541C183.311 110.868 183.548 111.301 183.601 111.841H182.601C182.568 111.574 182.428 111.341 182.181 111.141C181.934 110.934 181.608 110.831 181.201 110.831C180.821 110.831 180.511 110.931 180.271 111.131C180.031 111.324 179.911 111.598 179.911 111.951C179.911 112.204 179.981 112.411 180.121 112.571C180.268 112.731 180.444 112.854 180.651 112.941C180.864 113.021 181.161 113.114 181.541 113.221C182.001 113.348 182.371 113.474 182.651 113.601C182.931 113.721 183.171 113.911 183.371 114.171C183.571 114.424 183.671 114.771 183.671 115.211C183.671 115.551 183.581 115.871 183.401 116.171C183.221 116.471 182.954 116.714 182.601 116.901C182.248 117.088 181.831 117.181 181.351 117.181ZM185.92 110.141V117.111H185.01V110.141H185.92ZM187.131 113.621C187.131 112.941 187.285 112.331 187.591 111.791C187.898 111.244 188.315 110.818 188.841 110.511C189.375 110.204 189.965 110.051 190.611 110.051C191.371 110.051 192.035 110.234 192.601 110.601C193.168 110.968 193.581 111.488 193.841 112.161H192.751C192.558 111.741 192.278 111.418 191.911 111.191C191.551 110.964 191.118 110.851 190.611 110.851C190.125 110.851 189.688 110.964 189.301 111.191C188.915 111.418 188.611 111.741 188.391 112.161C188.171 112.574 188.061 113.061 188.061 113.621C188.061 114.174 188.171 114.661 188.391 115.081C188.611 115.494 188.915 115.814 189.301 116.041C189.688 116.268 190.125 116.381 190.611 116.381C191.118 116.381 191.551 116.271 191.911 116.051C192.278 115.824 192.558 115.501 192.751 115.081H193.841C193.581 115.748 193.168 116.264 192.601 116.631C192.035 116.991 191.371 117.171 190.611 117.171C189.965 117.171 189.375 117.021 188.841 116.721C188.315 116.414 187.898 115.991 187.591 115.451C187.285 114.911 187.131 114.301 187.131 113.621Z" fill="#1F275E"/>
<path d="M161.216 169.016C161.216 169.496 161.059 169.883 160.744 170.176C160.429 170.469 159.957 170.616 159.328 170.616H158.2V173H157.64V167.408H159.328C159.952 167.408 160.421 167.555 160.736 167.848C161.056 168.141 161.216 168.531 161.216 169.016ZM159.328 170.136C160.203 170.136 160.64 169.763 160.64 169.016C160.64 168.643 160.536 168.36 160.328 168.168C160.12 167.976 159.787 167.88 159.328 167.88H158.2V170.136H159.328ZM162.716 167.864V169.952H164.836V170.416H162.716V172.536H165.076V173H162.156V167.4H165.076V167.864H162.716ZM169.155 173L167.771 170.664H166.739V173H166.179V167.408H167.859C168.483 167.408 168.955 167.557 169.275 167.856C169.6 168.155 169.763 168.547 169.763 169.032C169.763 169.437 169.646 169.784 169.411 170.072C169.182 170.355 168.84 170.539 168.387 170.624L169.827 173H169.155ZM166.739 170.208H167.867C168.304 170.208 168.632 170.101 168.851 169.888C169.075 169.675 169.187 169.389 169.187 169.032C169.187 168.664 169.08 168.381 168.867 168.184C168.654 167.981 168.318 167.88 167.859 167.88H166.739V170.208ZM173.362 165.48L171.154 174.328H170.602L172.794 165.48H173.362ZM179.87 167.48V173H179.31V168.592L177.342 173H176.934L174.966 168.608V173H174.406V167.48H174.998L177.134 172.264L179.27 167.48H179.87ZM183.652 173.056C183.135 173.056 182.665 172.936 182.244 172.696C181.823 172.451 181.489 172.112 181.244 171.68C181.004 171.243 180.884 170.749 180.884 170.2C180.884 169.651 181.004 169.16 181.244 168.728C181.489 168.291 181.823 167.952 182.244 167.712C182.665 167.467 183.135 167.344 183.652 167.344C184.175 167.344 184.647 167.467 185.068 167.712C185.489 167.952 185.82 168.291 186.06 168.728C186.3 169.16 186.42 169.651 186.42 170.2C186.42 170.749 186.3 171.243 186.06 171.68C185.82 172.112 185.489 172.451 185.068 172.696C184.647 172.936 184.175 173.056 183.652 173.056ZM183.652 172.568C184.068 172.568 184.441 172.472 184.772 172.28C185.103 172.088 185.364 171.813 185.556 171.456C185.748 171.093 185.844 170.675 185.844 170.2C185.844 169.725 185.748 169.309 185.556 168.952C185.364 168.595 185.103 168.32 184.772 168.128C184.441 167.936 184.068 167.84 183.652 167.84C183.236 167.84 182.863 167.936 182.532 168.128C182.201 168.32 181.94 168.595 181.748 168.952C181.556 169.309 181.46 169.725 181.46 170.2C181.46 170.675 181.556 171.093 181.748 171.456C181.94 171.813 182.201 172.088 182.532 172.28C182.863 172.472 183.236 172.568 183.652 172.568ZM191.661 173H191.101L188.005 168.296V173H187.445V167.408H188.005L191.101 172.104V167.408H191.661V173ZM196.201 167.408V167.872H194.649V173H194.089V167.872H192.529V167.408H196.201ZM201.237 167.408V173H200.677V170.384H197.645V173H197.085V167.408H197.645V169.92H200.677V167.408H201.237Z" fill="#1F275E"/>
<path d="M168.86 155.92C168.86 156.653 168.667 157.333 168.28 157.96C167.907 158.573 167.347 159.08 166.6 159.48C165.867 159.867 164.993 160.08 163.98 160.12V161.74H162.7V160.1C161.287 159.98 160.147 159.56 159.28 158.84C158.413 158.107 157.953 157.113 157.9 155.86H161.54C161.62 156.66 162.007 157.173 162.7 157.4V154.24C161.66 153.973 160.827 153.713 160.2 153.46C159.587 153.207 159.047 152.8 158.58 152.24C158.113 151.68 157.88 150.913 157.88 149.94C157.88 148.727 158.327 147.753 159.22 147.02C160.127 146.287 161.287 145.873 162.7 145.78V144.16H163.98V145.78C165.38 145.887 166.487 146.293 167.3 147C168.113 147.707 168.567 148.687 168.66 149.94H165C164.92 149.22 164.58 148.753 163.98 148.54V151.64C165.087 151.947 165.94 152.22 166.54 152.46C167.14 152.7 167.673 153.1 168.14 153.66C168.62 154.207 168.86 154.96 168.86 155.92ZM161.5 149.78C161.5 150.113 161.6 150.393 161.8 150.62C162.013 150.847 162.313 151.047 162.7 151.22V148.44C162.327 148.507 162.033 148.653 161.82 148.88C161.607 149.093 161.5 149.393 161.5 149.78ZM163.98 157.46C164.38 157.393 164.693 157.233 164.92 156.98C165.16 156.727 165.28 156.413 165.28 156.04C165.28 155.693 165.167 155.413 164.94 155.2C164.727 154.973 164.407 154.78 163.98 154.62V157.46ZM170.704 148.58V145.4H176.244V160H172.684V148.58H170.704ZM182.264 155.72C182.464 156.773 183.077 157.3 184.104 157.3C184.81 157.3 185.31 156.987 185.604 156.36C185.897 155.733 186.044 154.713 186.044 153.3C185.75 153.713 185.35 154.033 184.844 154.26C184.337 154.487 183.77 154.6 183.144 154.6C182.29 154.6 181.53 154.427 180.864 154.08C180.197 153.72 179.67 153.193 179.284 152.5C178.91 151.793 178.724 150.94 178.724 149.94C178.724 148.953 178.924 148.093 179.324 147.36C179.737 146.627 180.317 146.06 181.064 145.66C181.824 145.26 182.717 145.06 183.744 145.06C185.717 145.06 187.097 145.673 187.884 146.9C188.67 148.127 189.064 149.933 189.064 152.32C189.064 154.053 188.904 155.487 188.584 156.62C188.277 157.74 187.75 158.593 187.004 159.18C186.27 159.767 185.264 160.06 183.984 160.06C182.97 160.06 182.104 159.86 181.384 159.46C180.677 159.06 180.13 158.533 179.744 157.88C179.37 157.227 179.157 156.507 179.104 155.72H182.264ZM183.924 151.9C184.484 151.9 184.93 151.733 185.264 151.4C185.597 151.053 185.764 150.587 185.764 150C185.764 149.36 185.59 148.867 185.244 148.52C184.897 148.173 184.43 148 183.844 148C183.257 148 182.79 148.18 182.444 148.54C182.11 148.887 181.944 149.367 181.944 149.98C181.944 150.553 182.11 151.02 182.444 151.38C182.79 151.727 183.284 151.9 183.924 151.9ZM194.568 155.72C194.768 156.773 195.382 157.3 196.408 157.3C197.115 157.3 197.615 156.987 197.908 156.36C198.202 155.733 198.348 154.713 198.348 153.3C198.055 153.713 197.655 154.033 197.148 154.26C196.642 154.487 196.075 154.6 195.448 154.6C194.595 154.6 193.835 154.427 193.168 154.08C192.502 153.72 191.975 153.193 191.588 152.5C191.215 151.793 191.028 150.94 191.028 149.94C191.028 148.953 191.228 148.093 191.628 147.36C192.042 146.627 192.622 146.06 193.368 145.66C194.128 145.26 195.022 145.06 196.048 145.06C198.022 145.06 199.402 145.673 200.188 146.9C200.975 148.127 201.368 149.933 201.368 152.32C201.368 154.053 201.208 155.487 200.888 156.62C200.582 157.74 200.055 158.593 199.308 159.18C198.575 159.767 197.568 160.06 196.288 160.06C195.275 160.06 194.408 159.86 193.688 159.46C192.982 159.06 192.435 158.533 192.048 157.88C191.675 157.227 191.462 156.507 191.408 155.72H194.568ZM196.228 151.9C196.788 151.9 197.235 151.733 197.568 151.4C197.902 151.053 198.068 150.587 198.068 150C198.068 149.36 197.895 148.867 197.548 148.52C197.202 148.173 196.735 148 196.148 148C195.562 148 195.095 148.18 194.748 148.54C194.415 148.887 194.248 149.367 194.248 149.98C194.248 150.553 194.415 151.02 194.748 151.38C195.095 151.727 195.588 151.9 196.228 151.9Z" fill="#1F275E"/>
<rect width="134" height="28" transform="translate(113 192)" fill="white"/>
<rect x="117.25" y="196.25" width="23.5" height="19.5" rx="3.75" stroke="#8C94AC" stroke-width="0.5"/>
<path d="M123.456 202.32V201.324H125.712V210H124.608V202.32H123.456ZM127.588 205.572C127.588 204.196 127.812 203.124 128.26 202.356C128.708 201.58 129.492 201.192 130.612 201.192C131.724 201.192 132.504 201.58 132.952 202.356C133.4 203.124 133.624 204.196 133.624 205.572C133.624 206.972 133.4 208.06 132.952 208.836C132.504 209.612 131.724 210 130.612 210C129.492 210 128.708 209.612 128.26 208.836C127.812 208.06 127.588 206.972 127.588 205.572ZM132.544 205.572C132.544 204.876 132.496 204.288 132.4 203.808C132.312 203.32 132.124 202.928 131.836 202.632C131.556 202.336 131.148 202.188 130.612 202.188C130.068 202.188 129.652 202.336 129.364 202.632C129.084 202.928 128.896 203.32 128.8 203.808C128.712 204.288 128.668 204.876 128.668 205.572C128.668 206.292 128.712 206.896 128.8 207.384C128.896 207.872 129.084 208.264 129.364 208.56C129.652 208.856 130.068 209.004 130.612 209.004C131.148 209.004 131.556 208.856 131.836 208.56C132.124 208.264 132.312 207.872 132.4 207.384C132.496 206.896 132.544 206.292 132.544 205.572Z" fill="#1F275E"/>
<rect x="151.25" y="196.25" width="23.5" height="19.5" rx="3.75" fill="#1F275E" stroke="#1F275E" stroke-width="0.5"/>
<path d="M156.612 209.124C157.628 208.308 158.424 207.64 159 207.12C159.576 206.592 160.06 206.044 160.452 205.476C160.852 204.9 161.052 204.336 161.052 203.784C161.052 203.264 160.924 202.856 160.668 202.56C160.42 202.256 160.016 202.104 159.456 202.104C158.912 202.104 158.488 202.276 158.184 202.62C157.888 202.956 157.728 203.408 157.704 203.976H156.648C156.68 203.08 156.952 202.388 157.464 201.9C157.976 201.412 158.636 201.168 159.444 201.168C160.268 201.168 160.92 201.396 161.4 201.852C161.888 202.308 162.132 202.936 162.132 203.736C162.132 204.4 161.932 205.048 161.532 205.68C161.14 206.304 160.692 206.856 160.188 207.336C159.684 207.808 159.04 208.36 158.256 208.992H162.384V209.904H156.612V209.124ZM169.178 202.272H164.966V205.008C165.15 204.752 165.422 204.544 165.782 204.384C166.142 204.216 166.53 204.132 166.946 204.132C167.61 204.132 168.15 204.272 168.566 204.552C168.982 204.824 169.278 205.18 169.454 205.62C169.638 206.052 169.73 206.512 169.73 207C169.73 207.576 169.622 208.092 169.406 208.548C169.19 209.004 168.858 209.364 168.41 209.628C167.97 209.892 167.422 210.024 166.766 210.024C165.926 210.024 165.246 209.808 164.726 209.376C164.206 208.944 163.89 208.368 163.778 207.648H164.846C164.95 208.104 165.17 208.46 165.506 208.716C165.842 208.972 166.266 209.1 166.778 209.1C167.41 209.1 167.886 208.912 168.206 208.536C168.526 208.152 168.686 207.648 168.686 207.024C168.686 206.4 168.526 205.92 168.206 205.584C167.886 205.24 167.414 205.068 166.79 205.068C166.366 205.068 165.994 205.172 165.674 205.38C165.362 205.58 165.134 205.856 164.99 206.208H163.958V201.312H169.178V202.272Z" fill="white"/>
<rect x="185.25" y="196.25" width="23.5" height="19.5" rx="3.75" stroke="#8C94AC" stroke-width="0.5"/>
<path d="M195.276 202.272H191.064V205.008C191.248 204.752 191.52 204.544 191.88 204.384C192.24 204.216 192.628 204.132 193.044 204.132C193.708 204.132 194.248 204.272 194.664 204.552C195.08 204.824 195.376 205.18 195.552 205.62C195.736 206.052 195.828 206.512 195.828 207C195.828 207.576 195.72 208.092 195.504 208.548C195.288 209.004 194.956 209.364 194.508 209.628C194.068 209.892 193.52 210.024 192.864 210.024C192.024 210.024 191.344 209.808 190.824 209.376C190.304 208.944 189.988 208.368 189.876 207.648H190.944C191.048 208.104 191.268 208.46 191.604 208.716C191.94 208.972 192.364 209.1 192.876 209.1C193.508 209.1 193.984 208.912 194.304 208.536C194.624 208.152 194.784 207.648 194.784 207.024C194.784 206.4 194.624 205.92 194.304 205.584C193.984 205.24 193.512 205.068 192.888 205.068C192.464 205.068 192.092 205.172 191.772 205.38C191.46 205.58 191.232 205.856 191.088 206.208H190.056V201.312H195.276V202.272ZM197.279 205.572C197.279 204.196 197.503 203.124 197.951 202.356C198.399 201.58 199.183 201.192 200.303 201.192C201.415 201.192 202.195 201.58 202.643 202.356C203.091 203.124 203.315 204.196 203.315 205.572C203.315 206.972 203.091 208.06 202.643 208.836C202.195 209.612 201.415 210 200.303 210C199.183 210 198.399 209.612 197.951 208.836C197.503 208.06 197.279 206.972 197.279 205.572ZM202.235 205.572C202.235 204.876 202.187 204.288 202.091 203.808C202.003 203.32 201.815 202.928 201.527 202.632C201.247 202.336 200.839 202.188 200.303 202.188C199.759 202.188 199.343 202.336 199.055 202.632C198.775 202.928 198.587 203.32 198.491 203.808C198.403 204.288 198.359 204.876 198.359 205.572C198.359 206.292 198.403 206.896 198.491 207.384C198.587 207.872 198.775 208.264 199.055 208.56C199.343 208.856 199.759 209.004 200.303 209.004C200.839 209.004 201.247 208.856 201.527 208.56C201.815 208.264 202.003 207.872 202.091 207.384C202.187 206.896 202.235 206.292 202.235 205.572Z" fill="#1F275E"/>
<rect x="219.25" y="196.25" width="23.5" height="19.5" rx="3.75" stroke="#8C94AC" stroke-width="0.5"/>
<path d="M222.456 202.32V201.324H224.712V210H223.608V202.32H222.456ZM226.588 205.572C226.588 204.196 226.812 203.124 227.26 202.356C227.708 201.58 228.492 201.192 229.612 201.192C230.724 201.192 231.504 201.58 231.952 202.356C232.4 203.124 232.624 204.196 232.624 205.572C232.624 206.972 232.4 208.06 231.952 208.836C231.504 209.612 230.724 210 229.612 210C228.492 210 227.708 209.612 227.26 208.836C226.812 208.06 226.588 206.972 226.588 205.572ZM231.544 205.572C231.544 204.876 231.496 204.288 231.4 203.808C231.312 203.32 231.124 202.928 230.836 202.632C230.556 202.336 230.148 202.188 229.612 202.188C229.068 202.188 228.652 202.336 228.364 202.632C228.084 202.928 227.896 203.32 227.8 203.808C227.712 204.288 227.668 204.876 227.668 205.572C227.668 206.292 227.712 206.896 227.8 207.384C227.896 207.872 228.084 208.264 228.364 208.56C228.652 208.856 229.068 209.004 229.612 209.004C230.148 209.004 230.556 208.856 230.836 208.56C231.124 208.264 231.312 207.872 231.4 207.384C231.496 206.896 231.544 206.292 231.544 205.572ZM234.123 205.572C234.123 204.196 234.347 203.124 234.795 202.356C235.243 201.58 236.027 201.192 237.147 201.192C238.259 201.192 239.039 201.58 239.487 202.356C239.935 203.124 240.159 204.196 240.159 205.572C240.159 206.972 239.935 208.06 239.487 208.836C239.039 209.612 238.259 210 237.147 210C236.027 210 235.243 209.612 234.795 208.836C234.347 208.06 234.123 206.972 234.123 205.572ZM239.079 205.572C239.079 204.876 239.031 204.288 238.935 203.808C238.847 203.32 238.659 202.928 238.371 202.632C238.091 202.336 237.683 202.188 237.147 202.188C236.603 202.188 236.187 202.336 235.899 202.632C235.619 202.928 235.431 203.32 235.335 203.808C235.247 204.288 235.203 204.876 235.203 205.572C235.203 206.292 235.247 206.896 235.335 207.384C235.431 207.872 235.619 208.264 235.899 208.56C236.187 208.856 236.603 209.004 237.147 209.004C237.683 209.004 238.091 208.856 238.371 208.56C238.659 208.264 238.847 207.872 238.935 207.384C239.031 206.896 239.079 206.292 239.079 205.572Z" fill="#1F275E"/>
<path d="M140.352 225.424C140.96 225.424 141.485 225.539 141.928 225.768C142.376 225.992 142.717 226.315 142.952 226.736C143.192 227.157 143.312 227.653 143.312 228.224C143.312 228.795 143.192 229.291 142.952 229.712C142.717 230.128 142.376 230.448 141.928 230.672C141.485 230.891 140.96 231 140.352 231H138.616V225.424H140.352ZM140.352 230.4C141.072 230.4 141.621 230.211 142 229.832C142.379 229.448 142.568 228.912 142.568 228.224C142.568 227.531 142.376 226.989 141.992 226.6C141.613 226.211 141.067 226.016 140.352 226.016H139.344V230.4H140.352ZM146.184 231.072C145.774 231.072 145.4 230.979 145.064 230.792C144.734 230.605 144.472 230.341 144.28 230C144.094 229.653 144 229.253 144 228.8C144 228.352 144.096 227.957 144.288 227.616C144.486 227.269 144.752 227.005 145.088 226.824C145.424 226.637 145.8 226.544 146.216 226.544C146.632 226.544 147.008 226.637 147.344 226.824C147.68 227.005 147.944 227.267 148.136 227.608C148.334 227.949 148.432 228.347 148.432 228.8C148.432 229.253 148.331 229.653 148.128 230C147.931 230.341 147.662 230.605 147.32 230.792C146.979 230.979 146.6 231.072 146.184 231.072ZM146.184 230.432C146.446 230.432 146.691 230.371 146.92 230.248C147.15 230.125 147.334 229.941 147.472 229.696C147.616 229.451 147.688 229.152 147.688 228.8C147.688 228.448 147.619 228.149 147.48 227.904C147.342 227.659 147.16 227.477 146.936 227.36C146.712 227.237 146.47 227.176 146.208 227.176C145.942 227.176 145.696 227.237 145.472 227.36C145.254 227.477 145.078 227.659 144.944 227.904C144.811 228.149 144.744 228.448 144.744 228.8C144.744 229.157 144.808 229.459 144.936 229.704C145.07 229.949 145.246 230.133 145.464 230.256C145.683 230.373 145.923 230.432 146.184 230.432ZM155.229 226.616L153.861 231H153.109L152.053 227.52L150.997 231H150.245L148.869 226.616H149.613L150.621 230.296L151.709 226.616H152.453L153.517 230.304L154.509 226.616H155.229ZM158.088 226.536C158.621 226.536 159.053 226.699 159.384 227.024C159.715 227.344 159.88 227.808 159.88 228.416V231H159.16V228.52C159.16 228.083 159.051 227.749 158.832 227.52C158.613 227.285 158.315 227.168 157.936 227.168C157.552 227.168 157.245 227.288 157.016 227.528C156.792 227.768 156.68 228.117 156.68 228.576V231H155.952V226.616H156.68V227.24C156.824 227.016 157.019 226.843 157.264 226.72C157.515 226.597 157.789 226.536 158.088 226.536ZM161.797 225.08V231H161.069V225.08H161.797ZM164.95 231.072C164.539 231.072 164.166 230.979 163.83 230.792C163.499 230.605 163.238 230.341 163.046 230C162.859 229.653 162.766 229.253 162.766 228.8C162.766 228.352 162.862 227.957 163.054 227.616C163.251 227.269 163.518 227.005 163.854 226.824C164.19 226.637 164.566 226.544 164.982 226.544C165.398 226.544 165.774 226.637 166.11 226.824C166.446 227.005 166.71 227.267 166.902 227.608C167.099 227.949 167.198 228.347 167.198 228.8C167.198 229.253 167.097 229.653 166.894 230C166.697 230.341 166.427 230.605 166.086 230.792C165.745 230.979 165.366 231.072 164.95 231.072ZM164.95 230.432C165.211 230.432 165.457 230.371 165.686 230.248C165.915 230.125 166.099 229.941 166.238 229.696C166.382 229.451 166.454 229.152 166.454 228.8C166.454 228.448 166.385 228.149 166.246 227.904C166.107 227.659 165.926 227.477 165.702 227.36C165.478 227.237 165.235 227.176 164.974 227.176C164.707 227.176 164.462 227.237 164.238 227.36C164.019 227.477 163.843 227.659 163.71 227.904C163.577 228.149 163.51 228.448 163.51 228.8C163.51 229.157 163.574 229.459 163.702 229.704C163.835 229.949 164.011 230.133 164.23 230.256C164.449 230.373 164.689 230.432 164.95 230.432ZM167.883 228.792C167.883 228.344 167.974 227.952 168.155 227.616C168.336 227.275 168.584 227.011 168.899 226.824C169.219 226.637 169.574 226.544 169.963 226.544C170.347 226.544 170.68 226.627 170.963 226.792C171.246 226.957 171.456 227.165 171.595 227.416V226.616H172.331V231H171.595V230.184C171.451 230.44 171.235 230.653 170.947 230.824C170.664 230.989 170.334 231.072 169.955 231.072C169.566 231.072 169.214 230.976 168.899 230.784C168.584 230.592 168.336 230.323 168.155 229.976C167.974 229.629 167.883 229.235 167.883 228.792ZM171.595 228.8C171.595 228.469 171.528 228.181 171.395 227.936C171.262 227.691 171.08 227.504 170.851 227.376C170.627 227.243 170.379 227.176 170.107 227.176C169.835 227.176 169.587 227.24 169.363 227.368C169.139 227.496 168.96 227.683 168.827 227.928C168.694 228.173 168.627 228.461 168.627 228.792C168.627 229.128 168.694 229.421 168.827 229.672C168.96 229.917 169.139 230.107 169.363 230.24C169.587 230.368 169.835 230.432 170.107 230.432C170.379 230.432 170.627 230.368 170.851 230.24C171.08 230.107 171.262 229.917 171.395 229.672C171.528 229.421 171.595 229.131 171.595 228.8ZM173.289 228.792C173.289 228.344 173.38 227.952 173.561 227.616C173.743 227.275 173.991 227.011 174.305 226.824C174.625 226.637 174.983 226.544 175.377 226.544C175.719 226.544 176.036 226.624 176.329 226.784C176.623 226.939 176.847 227.144 177.001 227.4V225.08H177.737V231H177.001V230.176C176.857 230.437 176.644 230.653 176.361 230.824C176.079 230.989 175.748 231.072 175.369 231.072C174.98 231.072 174.625 230.976 174.305 230.784C173.991 230.592 173.743 230.323 173.561 229.976C173.38 229.629 173.289 229.235 173.289 228.792ZM177.001 228.8C177.001 228.469 176.935 228.181 176.801 227.936C176.668 227.691 176.487 227.504 176.257 227.376C176.033 227.243 175.785 227.176 175.513 227.176C175.241 227.176 174.993 227.24 174.769 227.368C174.545 227.496 174.367 227.683 174.233 227.928C174.1 228.173 174.033 228.461 174.033 228.792C174.033 229.128 174.1 229.421 174.233 229.672C174.367 229.917 174.545 230.107 174.769 230.24C174.993 230.368 175.241 230.432 175.513 230.432C175.785 230.432 176.033 230.368 176.257 230.24C176.487 230.107 176.668 229.917 176.801 229.672C176.935 229.421 177.001 229.131 177.001 228.8ZM181.828 227.424C181.972 227.173 182.186 226.965 182.468 226.8C182.756 226.629 183.09 226.544 183.468 226.544C183.858 226.544 184.21 226.637 184.524 226.824C184.844 227.011 185.095 227.275 185.276 227.616C185.458 227.952 185.548 228.344 185.548 228.792C185.548 229.235 185.458 229.629 185.276 229.976C185.095 230.323 184.844 230.592 184.524 230.784C184.21 230.976 183.858 231.072 183.468 231.072C183.095 231.072 182.764 230.989 182.476 230.824C182.194 230.653 181.978 230.443 181.828 230.192V233.08H181.1V226.616H181.828V227.424ZM184.804 228.792C184.804 228.461 184.738 228.173 184.604 227.928C184.471 227.683 184.29 227.496 184.06 227.368C183.836 227.24 183.588 227.176 183.316 227.176C183.05 227.176 182.802 227.243 182.572 227.376C182.348 227.504 182.167 227.693 182.028 227.944C181.895 228.189 181.828 228.475 181.828 228.8C181.828 229.131 181.895 229.421 182.028 229.672C182.167 229.917 182.348 230.107 182.572 230.24C182.802 230.368 183.05 230.432 183.316 230.432C183.588 230.432 183.836 230.368 184.06 230.24C184.29 230.107 184.471 229.917 184.604 229.672C184.738 229.421 184.804 229.128 184.804 228.792ZM190.507 228.64C190.507 228.779 190.499 228.925 190.483 229.08H186.979C187.005 229.512 187.152 229.851 187.419 230.096C187.691 230.336 188.019 230.456 188.403 230.456C188.717 230.456 188.979 230.384 189.187 230.24C189.4 230.091 189.549 229.893 189.635 229.648H190.419C190.301 230.069 190.067 230.413 189.715 230.68C189.363 230.941 188.925 231.072 188.403 231.072C187.987 231.072 187.613 230.979 187.283 230.792C186.957 230.605 186.701 230.341 186.515 230C186.328 229.653 186.235 229.253 186.235 228.8C186.235 228.347 186.325 227.949 186.507 227.608C186.688 227.267 186.941 227.005 187.267 226.824C187.597 226.637 187.976 226.544 188.403 226.544C188.819 226.544 189.187 226.635 189.507 226.816C189.827 226.997 190.072 227.248 190.243 227.568C190.419 227.883 190.507 228.24 190.507 228.64ZM189.755 228.488C189.755 228.211 189.693 227.973 189.571 227.776C189.448 227.573 189.28 227.421 189.067 227.32C188.859 227.213 188.627 227.16 188.371 227.16C188.003 227.16 187.688 227.277 187.427 227.512C187.171 227.747 187.024 228.072 186.987 228.488H189.755ZM192.196 227.328C192.324 227.077 192.505 226.883 192.74 226.744C192.98 226.605 193.27 226.536 193.612 226.536V227.288H193.42C192.604 227.288 192.196 227.731 192.196 228.616V231H191.468V226.616H192.196V227.328ZM201.857 226.536C202.198 226.536 202.502 226.608 202.769 226.752C203.035 226.891 203.246 227.101 203.401 227.384C203.555 227.667 203.633 228.011 203.633 228.416V231H202.913V228.52C202.913 228.083 202.803 227.749 202.585 227.52C202.371 227.285 202.081 227.168 201.713 227.168C201.334 227.168 201.033 227.291 200.809 227.536C200.585 227.776 200.473 228.125 200.473 228.584V231H199.753V228.52C199.753 228.083 199.643 227.749 199.425 227.52C199.211 227.285 198.921 227.168 198.553 227.168C198.174 227.168 197.873 227.291 197.649 227.536C197.425 227.776 197.313 228.125 197.313 228.584V231H196.585V226.616H197.313V227.248C197.457 227.019 197.649 226.843 197.889 226.72C198.134 226.597 198.403 226.536 198.697 226.536C199.065 226.536 199.39 226.619 199.673 226.784C199.955 226.949 200.166 227.192 200.305 227.512C200.427 227.203 200.63 226.963 200.913 226.792C201.195 226.621 201.51 226.536 201.857 226.536ZM206.739 231.072C206.328 231.072 205.955 230.979 205.619 230.792C205.288 230.605 205.027 230.341 204.835 230C204.648 229.653 204.555 229.253 204.555 228.8C204.555 228.352 204.651 227.957 204.843 227.616C205.04 227.269 205.307 227.005 205.643 226.824C205.979 226.637 206.355 226.544 206.771 226.544C207.187 226.544 207.563 226.637 207.899 226.824C208.235 227.005 208.499 227.267 208.691 227.608C208.888 227.949 208.987 228.347 208.987 228.8C208.987 229.253 208.886 229.653 208.683 230C208.486 230.341 208.216 230.605 207.875 230.792C207.534 230.979 207.155 231.072 206.739 231.072ZM206.739 230.432C207 230.432 207.246 230.371 207.475 230.248C207.704 230.125 207.888 229.941 208.027 229.696C208.171 229.451 208.243 229.152 208.243 228.8C208.243 228.448 208.174 228.149 208.035 227.904C207.896 227.659 207.715 227.477 207.491 227.36C207.267 227.237 207.024 227.176 206.763 227.176C206.496 227.176 206.251 227.237 206.027 227.36C205.808 227.477 205.632 227.659 205.499 227.904C205.366 228.149 205.299 228.448 205.299 228.8C205.299 229.157 205.363 229.459 205.491 229.704C205.624 229.949 205.8 230.133 206.019 230.256C206.238 230.373 206.478 230.432 206.739 230.432ZM212.08 226.536C212.613 226.536 213.045 226.699 213.376 227.024C213.707 227.344 213.872 227.808 213.872 228.416V231H213.152V228.52C213.152 228.083 213.043 227.749 212.824 227.52C212.605 227.285 212.307 227.168 211.928 227.168C211.544 227.168 211.237 227.288 211.008 227.528C210.784 227.768 210.672 228.117 210.672 228.576V231H209.944V226.616H210.672V227.24C210.816 227.016 211.011 226.843 211.256 226.72C211.507 226.597 211.781 226.536 212.08 226.536ZM215.949 227.216V229.8C215.949 230.013 215.995 230.165 216.085 230.256C216.176 230.341 216.333 230.384 216.557 230.384H217.093V231H216.437C216.032 231 215.728 230.907 215.525 230.72C215.323 230.533 215.221 230.227 215.221 229.8V227.216H214.653V226.616H215.221V225.512H215.949V226.616H217.093V227.216H215.949ZM220.151 226.536C220.482 226.536 220.781 226.608 221.047 226.752C221.314 226.891 221.522 227.101 221.671 227.384C221.826 227.667 221.903 228.011 221.903 228.416V231H221.183V228.52C221.183 228.083 221.074 227.749 220.855 227.52C220.637 227.285 220.338 227.168 219.959 227.168C219.575 227.168 219.269 227.288 219.039 227.528C218.815 227.768 218.703 228.117 218.703 228.576V231H217.975V225.08H218.703V227.24C218.847 227.016 219.045 226.843 219.295 226.72C219.551 226.597 219.837 226.536 220.151 226.536Z" fill="#1F275E"/>
<g filter="url(#filter1_d_1_2)">
<rect x="102" y="250" width="156" height="30" rx="4" fill="#1F275E"/>
</g>
<path d="M162.384 268.056C162.016 268.056 161.685 267.992 161.392 267.864C161.104 267.731 160.877 267.549 160.712 267.32C160.547 267.085 160.461 266.816 160.456 266.512H161.232C161.259 266.773 161.365 266.995 161.552 267.176C161.744 267.352 162.021 267.44 162.384 267.44C162.731 267.44 163.003 267.355 163.2 267.184C163.403 267.008 163.504 266.784 163.504 266.512C163.504 266.299 163.445 266.125 163.328 265.992C163.211 265.859 163.064 265.757 162.888 265.688C162.712 265.619 162.475 265.544 162.176 265.464C161.808 265.368 161.512 265.272 161.288 265.176C161.069 265.08 160.88 264.931 160.72 264.728C160.565 264.52 160.488 264.243 160.488 263.896C160.488 263.592 160.565 263.323 160.72 263.088C160.875 262.853 161.091 262.672 161.368 262.544C161.651 262.416 161.973 262.352 162.336 262.352C162.859 262.352 163.285 262.483 163.616 262.744C163.952 263.005 164.141 263.352 164.184 263.784H163.384C163.357 263.571 163.245 263.384 163.048 263.224C162.851 263.059 162.589 262.976 162.264 262.976C161.96 262.976 161.712 263.056 161.52 263.216C161.328 263.371 161.232 263.589 161.232 263.872C161.232 264.075 161.288 264.24 161.4 264.368C161.517 264.496 161.659 264.595 161.824 264.664C161.995 264.728 162.232 264.803 162.536 264.888C162.904 264.989 163.2 265.091 163.424 265.192C163.648 265.288 163.84 265.44 164 265.648C164.16 265.851 164.24 266.128 164.24 266.48C164.24 266.752 164.168 267.008 164.024 267.248C163.88 267.488 163.667 267.683 163.384 267.832C163.101 267.981 162.768 268.056 162.384 268.056ZM169.199 263.616V268H168.471V267.352C168.333 267.576 168.138 267.752 167.887 267.88C167.642 268.003 167.37 268.064 167.071 268.064C166.73 268.064 166.423 267.995 166.151 267.856C165.879 267.712 165.663 267.499 165.503 267.216C165.349 266.933 165.271 266.589 165.271 266.184V263.616H165.991V266.088C165.991 266.52 166.101 266.853 166.319 267.088C166.538 267.317 166.837 267.432 167.215 267.432C167.605 267.432 167.911 267.312 168.135 267.072C168.359 266.832 168.471 266.483 168.471 266.024V263.616H169.199ZM171.157 264.432C171.306 264.171 171.525 263.957 171.812 263.792C172.101 263.627 172.429 263.544 172.797 263.544C173.191 263.544 173.546 263.637 173.861 263.824C174.175 264.011 174.423 264.275 174.605 264.616C174.786 264.952 174.877 265.344 174.877 265.792C174.877 266.235 174.786 266.629 174.605 266.976C174.423 267.323 174.172 267.592 173.852 267.784C173.538 267.976 173.186 268.072 172.797 268.072C172.418 268.072 172.085 267.989 171.797 267.824C171.514 267.659 171.301 267.448 171.157 267.192V268H170.429V262.08H171.157V264.432ZM174.133 265.792C174.133 265.461 174.066 265.173 173.933 264.928C173.799 264.683 173.618 264.496 173.389 264.368C173.165 264.24 172.917 264.176 172.645 264.176C172.378 264.176 172.13 264.243 171.901 264.376C171.677 264.504 171.495 264.693 171.357 264.944C171.223 265.189 171.157 265.475 171.157 265.8C171.157 266.131 171.223 266.421 171.357 266.672C171.495 266.917 171.677 267.107 171.901 267.24C172.13 267.368 172.378 267.432 172.645 267.432C172.917 267.432 173.165 267.368 173.389 267.24C173.618 267.107 173.799 266.917 173.933 266.672C174.066 266.421 174.133 266.128 174.133 265.792ZM177.387 268.072C177.051 268.072 176.749 268.016 176.483 267.904C176.216 267.787 176.005 267.627 175.851 267.424C175.696 267.216 175.611 266.979 175.595 266.712H176.347C176.368 266.931 176.469 267.109 176.651 267.248C176.837 267.387 177.08 267.456 177.379 267.456C177.656 267.456 177.875 267.395 178.035 267.272C178.195 267.149 178.275 266.995 178.275 266.808C178.275 266.616 178.189 266.475 178.019 266.384C177.848 266.288 177.584 266.195 177.227 266.104C176.901 266.019 176.635 265.933 176.427 265.848C176.224 265.757 176.048 265.627 175.899 265.456C175.755 265.28 175.683 265.051 175.683 264.768C175.683 264.544 175.749 264.339 175.883 264.152C176.016 263.965 176.205 263.819 176.451 263.712C176.696 263.6 176.976 263.544 177.291 263.544C177.776 263.544 178.168 263.667 178.467 263.912C178.765 264.157 178.925 264.493 178.947 264.92H178.219C178.203 264.691 178.109 264.507 177.939 264.368C177.773 264.229 177.549 264.16 177.267 264.16C177.005 264.16 176.797 264.216 176.643 264.328C176.488 264.44 176.411 264.587 176.411 264.768C176.411 264.912 176.456 265.032 176.547 265.128C176.643 265.219 176.76 265.293 176.899 265.352C177.043 265.405 177.24 265.467 177.491 265.536C177.805 265.621 178.061 265.707 178.259 265.792C178.456 265.872 178.624 265.995 178.763 266.16C178.907 266.325 178.981 266.541 178.987 266.808C178.987 267.048 178.92 267.264 178.787 267.456C178.653 267.648 178.464 267.8 178.219 267.912C177.979 268.019 177.701 268.072 177.387 268.072ZM179.742 265.8C179.742 265.347 179.833 264.952 180.014 264.616C180.196 264.275 180.446 264.011 180.766 263.824C181.092 263.637 181.462 263.544 181.878 263.544C182.417 263.544 182.86 263.675 183.206 263.936C183.558 264.197 183.79 264.56 183.902 265.024H183.118C183.044 264.757 182.897 264.547 182.678 264.392C182.465 264.237 182.198 264.16 181.878 264.16C181.462 264.16 181.126 264.304 180.87 264.592C180.614 264.875 180.486 265.277 180.486 265.8C180.486 266.328 180.614 266.736 180.87 267.024C181.126 267.312 181.462 267.456 181.878 267.456C182.198 267.456 182.465 267.381 182.678 267.232C182.892 267.083 183.038 266.869 183.118 266.592H183.902C183.785 267.04 183.55 267.4 183.198 267.672C182.846 267.939 182.406 268.072 181.878 268.072C181.462 268.072 181.092 267.979 180.766 267.792C180.446 267.605 180.196 267.341 180.014 267C179.833 266.659 179.742 266.259 179.742 265.8ZM185.602 264.328C185.73 264.077 185.911 263.883 186.146 263.744C186.386 263.605 186.676 263.536 187.018 263.536V264.288H186.826C186.01 264.288 185.602 264.731 185.602 265.616V268H184.874V263.616H185.602V264.328ZM188.234 262.904C188.096 262.904 187.978 262.856 187.882 262.76C187.786 262.664 187.738 262.547 187.738 262.408C187.738 262.269 187.786 262.152 187.882 262.056C187.978 261.96 188.096 261.912 188.234 261.912C188.368 261.912 188.48 261.96 188.57 262.056C188.666 262.152 188.714 262.269 188.714 262.408C188.714 262.547 188.666 262.664 188.57 262.76C188.48 262.856 188.368 262.904 188.234 262.904ZM188.586 263.616V268H187.858V263.616H188.586ZM190.555 264.432C190.704 264.171 190.923 263.957 191.211 263.792C191.499 263.627 191.827 263.544 192.195 263.544C192.59 263.544 192.944 263.637 193.259 263.824C193.574 264.011 193.822 264.275 194.003 264.616C194.184 264.952 194.275 265.344 194.275 265.792C194.275 266.235 194.184 266.629 194.003 266.976C193.822 267.323 193.571 267.592 193.251 267.784C192.936 267.976 192.584 268.072 192.195 268.072C191.816 268.072 191.483 267.989 191.195 267.824C190.912 267.659 190.699 267.448 190.555 267.192V268H189.827V262.08H190.555V264.432ZM193.531 265.792C193.531 265.461 193.464 265.173 193.331 264.928C193.198 264.683 193.016 264.496 192.787 264.368C192.563 264.24 192.315 264.176 192.043 264.176C191.776 264.176 191.528 264.243 191.299 264.376C191.075 264.504 190.894 264.693 190.755 264.944C190.622 265.189 190.555 265.475 190.555 265.8C190.555 266.131 190.622 266.421 190.755 266.672C190.894 266.917 191.075 267.107 191.299 267.24C191.528 267.368 191.776 267.432 192.043 267.432C192.315 267.432 192.563 267.368 192.787 267.24C193.016 267.107 193.198 266.917 193.331 266.672C193.464 266.421 193.531 266.128 193.531 265.792ZM199.233 265.64C199.233 265.779 199.225 265.925 199.209 266.08H195.705C195.732 266.512 195.879 266.851 196.145 267.096C196.417 267.336 196.745 267.456 197.129 267.456C197.444 267.456 197.705 267.384 197.913 267.24C198.127 267.091 198.276 266.893 198.361 266.648H199.145C199.028 267.069 198.793 267.413 198.441 267.68C198.089 267.941 197.652 268.072 197.129 268.072C196.713 268.072 196.34 267.979 196.009 267.792C195.684 267.605 195.428 267.341 195.241 267C195.055 266.653 194.961 266.253 194.961 265.8C194.961 265.347 195.052 264.949 195.233 264.608C195.415 264.267 195.668 264.005 195.993 263.824C196.324 263.637 196.703 263.544 197.129 263.544C197.545 263.544 197.913 263.635 198.233 263.816C198.553 263.997 198.799 264.248 198.969 264.568C199.145 264.883 199.233 265.24 199.233 265.64ZM198.481 265.488C198.481 265.211 198.42 264.973 198.297 264.776C198.175 264.573 198.007 264.421 197.793 264.32C197.585 264.213 197.353 264.16 197.097 264.16C196.729 264.16 196.415 264.277 196.153 264.512C195.897 264.747 195.751 265.072 195.713 265.488H198.481Z" fill="white"/>
</g>
<defs>
<filter id="filter0_d_1_2" x="62" y="45" width="236" height="287" filterUnits="userSpaceOnUse" color-interpolation-filters="sRGB">
<feFlood flood-opacity="0" result="BackgroundImageFix"/>
<feColorMatrix in="SourceAlpha" type="matrix" values="0 0 0 0 0 0 0 0 0 0 0 0 0 0 0 0 0 0 127 0" result="hardAlpha"/>
<feOffset dy="8"/>
<feGaussianBlur stdDeviation="10"/>
<feComposite in2="hardAlpha" operator="out"/>
<feColorMatrix type="matrix" values="0 0 0 0 0 0 0 0 0 0 0 0 0 0 0 0 0 0 0.05 0"/>
<feBlend mode="normal" in2="BackgroundImageFix" result="effect1_dropShadow_1_2"/>
<feBlend mode="normal" in="SourceGraphic" in2="effect1_dropShadow_1_2" result="shape"/>
</filter>
<filter id="filter1_d_1_2" x="92" y="244" width="176" height="50" filterUnits="userSpaceOnUse" color-interpolation-filters="sRGB">
<feFlood flood-opacity="0" result="BackgroundImageFix"/>
<feColorMatrix in="SourceAlpha" type="matrix" values="0 0 0 0 0 0 0 0 0 0 0 0 0 0 0 0 0 0 127 0" result="hardAlpha"/>
<feOffset dy="4"/>
<feGaussianBlur stdDeviation="5"/>
<feComposite in2="hardAlpha" operator="out"/>
<feColorMatrix type="matrix" values="0 0 0 0 0.121569 0 0 0 0 0.152941 0 0 0 0 0.368627 0 0 0 0.15 0"/>
<feBlend mode="normal" in2="BackgroundImageFix" result="effect1_dropShadow_1_2"/>
<feBlend mode="normal" in="SourceGraphic" in2="effect1_dropShadow_1_2" result="shape"/>
</filter>
</defs>
</svg>
