<svg width="360" height="360" viewBox="0 0 360 360" fill="none" xmlns="http://www.w3.org/2000/svg">
<rect width="360" height="360" fill="white"/>
<g filter="url(#filter0_d_1_2)">
<rect x="30" y="150" width="300" height="50" rx="10" fill="url(#paint0_linear_1_2)"/>
<rect x="38" y="158" width="200" height="34" rx="6" fill="white"/>
<path d="M76.9148 172.545C76.8745 172.141 76.6958 171.819 76.3786 171.58C76.0613 171.34 75.6624 171.221 75.1818 171.221C74.8433 171.221 74.545 171.279 74.2869 171.395C74.0313 171.511 73.83 171.672 73.6832 171.878C73.5388 172.081 73.4666 172.313 73.4666 172.574C73.4666 172.766 73.508 172.934 73.5909 173.078C73.6738 173.223 73.785 173.347 73.9247 173.451C74.0668 173.553 74.223 173.64 74.3935 173.714C74.5663 173.787 74.7403 173.849 74.9155 173.898L75.6825 174.119C75.9145 174.183 76.1465 174.264 76.3786 174.364C76.6106 174.463 76.8224 174.589 77.0142 174.74C77.2083 174.889 77.3634 175.073 77.4794 175.29C77.5978 175.506 77.657 175.765 77.657 176.068C77.657 176.456 77.5563 176.806 77.3551 177.116C77.1539 177.426 76.8651 177.672 76.4886 177.854C76.1122 178.034 75.6612 178.124 75.1357 178.124C74.6409 178.124 74.2112 178.043 73.8466 177.879C73.482 177.714 73.1955 177.485 72.9872 177.194C72.7789 176.903 72.6617 176.565 72.6357 176.182H73.3175C73.3411 176.468 73.4358 176.711 73.6016 176.91C73.7673 177.109 73.9827 177.26 74.2479 177.364C74.513 177.466 74.8089 177.517 75.1357 177.517C75.4979 177.517 75.8198 177.457 76.1016 177.336C76.3857 177.213 76.6082 177.042 76.7692 176.825C76.9325 176.604 77.0142 176.349 77.0142 176.058C77.0142 175.811 76.9503 175.605 76.8224 175.44C76.6946 175.272 76.5159 175.131 76.2862 175.017C76.0589 174.903 75.795 174.803 75.4943 174.715L74.6243 174.46C74.0537 174.289 73.611 174.054 73.2962 173.753C72.9813 173.452 72.8239 173.069 72.8239 172.602C72.8239 172.212 72.928 171.868 73.1364 171.572C73.3471 171.274 73.6312 171.042 73.9886 170.876C74.3485 170.708 74.7521 170.624 75.1996 170.624C75.6518 170.624 76.0518 170.707 76.3999 170.873C76.7479 171.039 77.0237 171.267 77.2273 171.558C77.4332 171.847 77.5433 172.176 77.5575 172.545H76.9148ZM81.3288 178.114C80.8198 178.114 80.3795 177.995 80.0078 177.759C79.6361 177.519 79.3485 177.189 79.1449 176.768C78.9437 176.344 78.843 175.856 78.843 175.305C78.843 174.755 78.9437 174.268 79.1449 173.842C79.3485 173.413 79.629 173.078 79.9865 172.837C80.3464 172.593 80.7618 172.471 81.233 172.471C81.5289 172.471 81.8142 172.525 82.0888 172.634C82.3634 172.741 82.6096 172.905 82.8274 173.128C83.0476 173.348 83.2216 173.626 83.3494 173.962C83.4773 174.296 83.5412 174.692 83.5412 175.148V175.461H79.2798V174.903H82.8949C82.8949 174.553 82.8239 174.238 82.6818 173.959C82.5421 173.677 82.3468 173.455 82.0959 173.291C81.8473 173.128 81.5597 173.046 81.233 173.046C80.8873 173.046 80.5831 173.138 80.3203 173.323C80.0575 173.508 79.8516 173.752 79.7024 174.055C79.5556 174.358 79.4811 174.689 79.4787 175.049V175.383C79.4787 175.816 79.5533 176.195 79.7024 176.519C79.8539 176.841 80.0682 177.091 80.3452 177.268C80.6222 177.446 80.95 177.535 81.3288 177.535C81.5869 177.535 81.813 177.495 82.0071 177.414C82.2036 177.334 82.3681 177.226 82.5007 177.091C82.6357 176.954 82.7375 176.803 82.8061 176.64L83.4062 176.835C83.3234 177.065 83.1873 177.277 82.9979 177.471C82.8108 177.665 82.5765 177.821 82.2947 177.94C82.0154 178.056 81.6934 178.114 81.3288 178.114ZM86.4576 178.124C86.1285 178.124 85.8278 178.06 85.5556 177.933C85.2833 177.802 85.0667 177.615 84.9057 177.371C84.7447 177.125 84.6642 176.827 84.6642 176.477C84.6642 176.207 84.7151 175.979 84.8169 175.795C84.9187 175.61 85.0632 175.459 85.2502 175.34C85.4372 175.222 85.6586 175.128 85.9142 175.06C86.1699 174.991 86.4516 174.938 86.7594 174.9C87.0648 174.862 87.3229 174.829 87.5336 174.8C87.7466 174.772 87.9088 174.727 88.0201 174.665C88.1313 174.604 88.187 174.504 88.187 174.367V174.239C88.187 173.868 88.0757 173.575 87.8532 173.362C87.633 173.147 87.3158 173.039 86.9015 173.039C86.5085 173.039 86.1877 173.125 85.9391 173.298C85.6929 173.471 85.5201 173.675 85.4206 173.909L84.8205 173.692C84.9436 173.394 85.1141 173.156 85.3319 172.979C85.5497 172.799 85.7935 172.67 86.0634 172.592C86.3333 172.511 86.6067 172.471 86.8837 172.471C87.092 172.471 87.3087 172.498 87.5336 172.553C87.7608 172.607 87.9715 172.702 88.1657 172.837C88.3598 172.969 88.5172 173.155 88.638 173.394C88.7587 173.631 88.8191 173.932 88.8191 174.296V178H88.187V177.137H88.1479C88.0721 177.298 87.9597 177.454 87.8105 177.606C87.6614 177.757 87.4744 177.882 87.2495 177.979C87.0246 178.076 86.7606 178.124 86.4576 178.124ZM86.5428 177.545C86.879 177.545 87.1702 177.471 87.4164 177.322C87.6626 177.173 87.852 176.975 87.9846 176.729C88.1195 176.48 88.187 176.207 88.187 175.908V175.12C88.1396 175.165 88.0603 175.205 87.949 175.241C87.8401 175.276 87.7135 175.308 87.5691 175.337C87.427 175.363 87.285 175.385 87.1429 175.404C87.0009 175.423 86.873 175.44 86.7594 175.454C86.4516 175.492 86.1889 175.551 85.9711 175.631C85.7533 175.712 85.5864 175.823 85.4703 175.965C85.3543 176.105 85.2963 176.285 85.2963 176.505C85.2963 176.836 85.4147 177.093 85.6515 177.276C85.8882 177.455 86.1853 177.545 86.5428 177.545ZM90.5005 178V172.545H91.1149V173.384H91.161C91.2699 173.109 91.4593 172.888 91.7292 172.719C92.0015 172.549 92.3092 172.464 92.6525 172.464C92.7046 172.464 92.7626 172.465 92.8265 172.467C92.8904 172.47 92.9437 172.472 92.9863 172.474V173.117C92.9579 173.112 92.9082 173.105 92.8372 173.096C92.7662 173.086 92.6892 173.082 92.6064 173.082C92.3223 173.082 92.069 173.142 91.8464 173.263C91.6262 173.381 91.4522 173.546 91.3244 173.756C91.1966 173.967 91.1326 174.207 91.1326 174.477V178H90.5005ZM96.0297 178.114C95.542 178.114 95.117 177.992 94.7548 177.748C94.3949 177.504 94.1156 177.17 93.9167 176.746C93.7179 176.323 93.6184 175.84 93.6184 175.298C93.6184 174.751 93.719 174.264 93.9203 173.838C94.1239 173.412 94.4056 173.078 94.7654 172.837C95.1253 172.593 95.5431 172.471 96.019 172.471C96.3836 172.471 96.7138 172.542 97.0098 172.684C97.3057 172.824 97.5495 173.021 97.7413 173.277C97.9354 173.53 98.0574 173.826 98.1071 174.165H97.4679C97.4016 173.857 97.2418 173.594 96.9885 173.376C96.7375 173.156 96.4179 173.046 96.0297 173.046C95.6816 173.046 95.3739 173.141 95.1064 173.33C94.8388 173.517 94.6293 173.779 94.4778 174.115C94.3287 174.449 94.2541 174.836 94.2541 175.276C94.2541 175.719 94.3275 176.111 94.4743 176.452C94.621 176.79 94.827 177.055 95.0922 177.247C95.3597 177.439 95.6722 177.535 96.0297 177.535C96.2711 177.535 96.4913 177.49 96.6902 177.4C96.8914 177.308 97.0595 177.177 97.1944 177.009C97.3317 176.841 97.4241 176.641 97.4714 176.409H98.1106C98.0633 176.738 97.9461 177.032 97.7591 177.29C97.5744 177.545 97.3341 177.747 97.0382 177.893C96.7446 178.04 96.4084 178.114 96.0297 178.114ZM100.097 174.591V178H99.4654V170.727H100.097V173.401H100.154C100.282 173.12 100.48 172.895 100.747 172.727C101.017 172.558 101.358 172.474 101.77 172.474C102.139 172.474 102.464 172.55 102.743 172.702C103.022 172.853 103.24 173.077 103.396 173.373C103.553 173.669 103.631 174.033 103.631 174.467V178H102.995V174.506C102.995 174.056 102.87 173.702 102.619 173.444C102.37 173.183 102.034 173.053 101.61 173.053C101.319 173.053 101.06 173.115 100.833 173.238C100.605 173.361 100.425 173.539 100.293 173.771C100.163 174 100.097 174.274 100.097 174.591ZM109.631 178.124C109.302 178.124 109.002 178.06 108.729 177.933C108.457 177.802 108.241 177.615 108.08 177.371C107.919 177.125 107.838 176.827 107.838 176.477C107.838 176.207 107.889 175.979 107.991 175.795C108.093 175.61 108.237 175.459 108.424 175.34C108.611 175.222 108.832 175.128 109.088 175.06C109.344 174.991 109.625 174.938 109.933 174.9C110.239 174.862 110.497 174.829 110.707 174.8C110.92 174.772 111.083 174.727 111.194 174.665C111.305 174.604 111.361 174.504 111.361 174.367V174.239C111.361 173.868 111.25 173.575 111.027 173.362C110.807 173.147 110.49 173.039 110.075 173.039C109.682 173.039 109.362 173.125 109.113 173.298C108.867 173.471 108.694 173.675 108.594 173.909L107.994 173.692C108.117 173.394 108.288 173.156 108.506 172.979C108.723 172.799 108.967 172.67 109.237 172.592C109.507 172.511 109.781 172.471 110.058 172.471C110.266 172.471 110.482 172.498 110.707 172.553C110.935 172.607 111.145 172.702 111.339 172.837C111.534 172.969 111.691 173.155 111.812 173.394C111.933 173.631 111.993 173.932 111.993 174.296V178H111.361V177.137H111.322C111.246 177.298 111.134 177.454 110.984 177.606C110.835 177.757 110.648 177.882 110.423 177.979C110.198 178.076 109.934 178.124 109.631 178.124ZM109.717 177.545C110.053 177.545 110.344 177.471 110.59 177.322C110.836 177.173 111.026 176.975 111.158 176.729C111.293 176.48 111.361 176.207 111.361 175.908V175.12C111.313 175.165 111.234 175.205 111.123 175.241C111.014 175.276 110.887 175.308 110.743 175.337C110.601 175.363 110.459 175.385 110.317 175.404C110.175 175.423 110.047 175.44 109.933 175.454C109.625 175.492 109.363 175.551 109.145 175.631C108.927 175.712 108.76 175.823 108.644 175.965C108.528 176.105 108.47 176.285 108.47 176.505C108.47 176.836 108.589 177.093 108.825 177.276C109.062 177.455 109.359 177.545 109.717 177.545ZM113.674 178V172.545H114.289V173.384H114.335C114.444 173.109 114.633 172.888 114.903 172.719C115.175 172.549 115.483 172.464 115.826 172.464C115.878 172.464 115.936 172.465 116 172.467C116.064 172.47 116.118 172.472 116.16 172.474V173.117C116.132 173.112 116.082 173.105 116.011 173.096C115.94 173.086 115.863 173.082 115.78 173.082C115.496 173.082 115.243 173.142 115.02 173.263C114.8 173.381 114.626 173.546 114.498 173.756C114.37 173.967 114.306 174.207 114.306 174.477V178H113.674ZM119.729 172.545V173.096H117.126V172.545H119.729ZM117.939 171.239H118.575V176.576C118.575 176.803 118.614 176.982 118.692 177.112C118.77 177.24 118.872 177.331 118.998 177.386C119.123 177.438 119.257 177.464 119.399 177.464C119.482 177.464 119.553 177.459 119.612 177.45C119.671 177.438 119.723 177.426 119.768 177.414L119.903 177.986C119.842 178.009 119.766 178.031 119.676 178.05C119.586 178.071 119.475 178.082 119.342 178.082C119.11 178.082 118.886 178.031 118.671 177.929C118.458 177.827 118.283 177.676 118.145 177.474C118.008 177.273 117.939 177.023 117.939 176.725V171.239ZM121.172 178V172.545H121.807V178H121.172ZM121.495 171.608C121.365 171.608 121.253 171.564 121.161 171.477C121.069 171.387 121.023 171.279 121.023 171.153C121.023 171.028 121.069 170.921 121.161 170.834C121.253 170.744 121.365 170.699 121.495 170.699C121.625 170.699 121.736 170.744 121.829 170.834C121.921 170.921 121.967 171.028 121.967 171.153C121.967 171.279 121.921 171.387 121.829 171.477C121.736 171.564 121.625 171.608 121.495 171.608ZM125.61 178.114C125.122 178.114 124.697 177.992 124.335 177.748C123.975 177.504 123.696 177.17 123.497 176.746C123.298 176.323 123.199 175.84 123.199 175.298C123.199 174.751 123.299 174.264 123.5 173.838C123.704 173.412 123.986 173.078 124.346 172.837C124.705 172.593 125.123 172.471 125.599 172.471C125.964 172.471 126.294 172.542 126.59 172.684C126.886 172.824 127.13 173.021 127.321 173.277C127.516 173.53 127.637 173.826 127.687 174.165H127.048C126.982 173.857 126.822 173.594 126.569 173.376C126.318 173.156 125.998 173.046 125.61 173.046C125.262 173.046 124.954 173.141 124.686 173.33C124.419 173.517 124.209 173.779 124.058 174.115C123.909 174.449 123.834 174.836 123.834 175.276C123.834 175.719 123.908 176.111 124.054 176.452C124.201 176.79 124.407 177.055 124.672 177.247C124.94 177.439 125.252 177.535 125.61 177.535C125.851 177.535 126.071 177.49 126.27 177.4C126.471 177.308 126.64 177.177 126.775 177.009C126.912 176.841 127.004 176.641 127.051 176.409H127.691C127.643 176.738 127.526 177.032 127.339 177.29C127.154 177.545 126.914 177.747 126.618 177.893C126.325 178.04 125.989 178.114 125.61 178.114ZM129.678 170.727V178H129.045V170.727H129.678ZM133.555 178.114C133.046 178.114 132.606 177.995 132.234 177.759C131.863 177.519 131.575 177.189 131.371 176.768C131.17 176.344 131.07 175.856 131.07 175.305C131.07 174.755 131.17 174.268 131.371 173.842C131.575 173.413 131.856 173.078 132.213 172.837C132.573 172.593 132.988 172.471 133.46 172.471C133.755 172.471 134.041 172.525 134.315 172.634C134.59 172.741 134.836 172.905 135.054 173.128C135.274 173.348 135.448 173.626 135.576 173.962C135.704 174.296 135.768 174.692 135.768 175.148V175.461H131.506V174.903H135.121C135.121 174.553 135.05 174.238 134.908 173.959C134.769 173.677 134.573 173.455 134.322 173.291C134.074 173.128 133.786 173.046 133.46 173.046C133.114 173.046 132.81 173.138 132.547 173.323C132.284 173.508 132.078 173.752 131.929 174.055C131.782 174.358 131.708 174.689 131.705 175.049V175.383C131.705 175.816 131.78 176.195 131.929 176.519C132.08 176.841 132.295 177.091 132.572 177.268C132.849 177.446 133.177 177.535 133.555 177.535C133.813 177.535 134.04 177.495 134.234 177.414C134.43 177.334 134.595 177.226 134.727 177.091C134.862 176.954 134.964 176.803 135.033 176.64L135.633 176.835C135.55 177.065 135.414 177.277 135.224 177.471C135.037 177.665 134.803 177.821 134.521 177.94C134.242 178.056 133.92 178.114 133.555 178.114ZM140.825 173.742L140.247 173.906C140.19 173.742 140.109 173.594 140.005 173.462C139.901 173.329 139.765 173.224 139.597 173.146C139.431 173.067 139.225 173.028 138.979 173.028C138.61 173.028 138.307 173.116 138.07 173.291C137.833 173.466 137.715 173.692 137.715 173.969C137.715 174.204 137.795 174.394 137.956 174.541C138.119 174.686 138.37 174.8 138.709 174.886L139.533 175.088C139.99 175.199 140.332 175.376 140.559 175.617C140.789 175.859 140.904 176.162 140.904 176.526C140.904 176.834 140.818 177.107 140.648 177.347C140.477 177.586 140.24 177.774 139.934 177.911C139.631 178.046 139.28 178.114 138.879 178.114C138.347 178.114 137.908 177.994 137.562 177.755C137.216 177.513 136.995 177.165 136.898 176.711L137.505 176.562C137.583 176.886 137.736 177.131 137.963 177.297C138.193 177.463 138.495 177.545 138.869 177.545C139.288 177.545 139.623 177.452 139.874 177.265C140.125 177.076 140.25 176.839 140.25 176.555C140.25 176.335 140.177 176.15 140.03 176.001C139.883 175.849 139.661 175.738 139.362 175.667L138.471 175.454C137.998 175.34 137.647 175.16 137.42 174.914C137.193 174.668 137.079 174.362 137.079 173.998C137.079 173.697 137.161 173.433 137.324 173.206C137.487 172.976 137.712 172.796 137.999 172.666C138.285 172.536 138.612 172.471 138.979 172.471C139.478 172.471 139.877 172.585 140.176 172.812C140.476 173.037 140.693 173.347 140.825 173.742ZM143.339 177.006L143.275 177.386C143.235 177.641 143.178 177.923 143.104 178.231C143.031 178.539 142.955 178.831 142.877 179.108C142.799 179.385 142.732 179.607 142.675 179.776H142.188C142.219 179.615 142.258 179.41 142.305 179.161C142.355 178.913 142.406 178.637 142.458 178.334C142.51 178.033 142.558 177.723 142.6 177.403L142.65 177.006H143.339ZM147.161 172.545V173.096H144.558V172.545H147.161ZM145.371 171.239H146.007V176.576C146.007 176.803 146.046 176.982 146.124 177.112C146.202 177.24 146.304 177.331 146.429 177.386C146.555 177.438 146.688 177.464 146.83 177.464C146.913 177.464 146.984 177.459 147.044 177.45C147.103 177.438 147.155 177.426 147.2 177.414L147.335 177.986C147.273 178.009 147.197 178.031 147.107 178.05C147.017 178.071 146.906 178.082 146.774 178.082C146.542 178.082 146.318 178.031 146.102 177.929C145.889 177.827 145.714 177.676 145.577 177.474C145.44 177.273 145.371 177.023 145.371 176.725V171.239ZM150.658 178.114C150.187 178.114 149.77 177.994 149.408 177.755C149.048 177.516 148.766 177.186 148.562 176.764C148.359 176.34 148.257 175.852 148.257 175.298C148.257 174.739 148.359 174.248 148.562 173.824C148.766 173.398 149.048 173.066 149.408 172.83C149.77 172.59 150.187 172.471 150.658 172.471C151.129 172.471 151.544 172.59 151.904 172.83C152.264 173.069 152.546 173.4 152.749 173.824C152.955 174.248 153.058 174.739 153.058 175.298C153.058 175.852 152.956 176.34 152.753 176.764C152.549 177.186 152.266 177.516 151.904 177.755C151.544 177.994 151.129 178.114 150.658 178.114ZM150.658 177.535C151.036 177.535 151.357 177.433 151.62 177.229C151.883 177.026 152.082 176.755 152.217 176.416C152.354 176.078 152.423 175.705 152.423 175.298C152.423 174.89 152.354 174.516 152.217 174.175C152.082 173.835 151.883 173.561 151.62 173.355C151.357 173.149 151.036 173.046 150.658 173.046C150.281 173.046 149.96 173.149 149.695 173.355C149.433 173.561 149.232 173.835 149.095 174.175C148.96 174.516 148.893 174.89 148.893 175.298C148.893 175.705 148.96 176.078 149.095 176.416C149.232 176.755 149.433 177.026 149.695 177.229C149.958 177.433 150.279 177.535 150.658 177.535ZM154.446 180.045V172.545H155.06V173.586H155.135C155.211 173.423 155.315 173.256 155.447 173.085C155.58 172.912 155.755 172.767 155.973 172.648C156.193 172.53 156.47 172.471 156.804 172.471C157.254 172.471 157.647 172.589 157.983 172.826C158.321 173.06 158.584 173.389 158.771 173.813C158.961 174.235 159.055 174.726 159.055 175.287C159.055 175.85 158.961 176.344 158.771 176.768C158.584 177.192 158.321 177.522 157.983 177.759C157.647 177.995 157.256 178.114 156.811 178.114C156.482 178.114 156.206 178.054 155.983 177.936C155.763 177.818 155.585 177.672 155.447 177.499C155.312 177.324 155.208 177.154 155.135 176.988H155.078V180.045H154.446ZM155.071 175.276C155.071 175.717 155.136 176.107 155.266 176.448C155.399 176.787 155.588 177.053 155.834 177.247C156.083 177.439 156.384 177.535 156.736 177.535C157.099 177.535 157.404 177.435 157.653 177.237C157.903 177.035 158.094 176.764 158.224 176.423C158.357 176.082 158.423 175.7 158.423 175.276C158.423 174.857 158.358 174.48 158.228 174.143C158.1 173.807 157.911 173.541 157.66 173.344C157.409 173.146 157.101 173.046 156.736 173.046C156.381 173.046 156.079 173.142 155.831 173.334C155.582 173.523 155.393 173.786 155.263 174.122C155.135 174.456 155.071 174.841 155.071 175.276ZM160.449 178V172.545H161.085V178H160.449ZM160.772 171.608C160.642 171.608 160.531 171.564 160.438 171.477C160.346 171.387 160.3 171.279 160.3 171.153C160.3 171.028 160.346 170.921 160.438 170.834C160.531 170.744 160.642 170.699 160.772 170.699C160.902 170.699 161.014 170.744 161.106 170.834C161.198 170.921 161.244 171.028 161.244 171.153C161.244 171.279 161.198 171.387 161.106 171.477C161.014 171.564 160.902 171.608 160.772 171.608ZM164.887 178.114C164.399 178.114 163.974 177.992 163.612 177.748C163.252 177.504 162.973 177.17 162.774 176.746C162.575 176.323 162.476 175.84 162.476 175.298C162.476 174.751 162.576 174.264 162.778 173.838C162.981 173.412 163.263 173.078 163.623 172.837C163.983 172.593 164.401 172.471 164.876 172.471C165.241 172.471 165.571 172.542 165.867 172.684C166.163 172.824 166.407 173.021 166.599 173.277C166.793 173.53 166.915 173.826 166.964 174.165H166.325C166.259 173.857 166.099 173.594 165.846 173.376C165.595 173.156 165.275 173.046 164.887 173.046C164.539 173.046 164.231 173.141 163.964 173.33C163.696 173.517 163.487 173.779 163.335 174.115C163.186 174.449 163.112 174.836 163.112 175.276C163.112 175.719 163.185 176.111 163.332 176.452C163.478 176.79 163.684 177.055 163.95 177.247C164.217 177.439 164.53 177.535 164.887 177.535C165.129 177.535 165.349 177.49 165.548 177.4C165.749 177.308 165.917 177.177 166.052 177.009C166.189 176.841 166.281 176.641 166.329 176.409H166.968C166.921 176.738 166.804 177.032 166.616 177.29C166.432 177.545 166.192 177.747 165.896 177.893C165.602 178.04 165.266 178.114 164.887 178.114ZM171.988 173.742L171.409 173.906C171.352 173.742 171.271 173.594 171.167 173.462C171.063 173.329 170.927 173.224 170.759 173.146C170.593 173.067 170.387 173.028 170.141 173.028C169.772 173.028 169.469 173.116 169.232 173.291C168.995 173.466 168.877 173.692 168.877 173.969C168.877 174.204 168.957 174.394 169.118 174.541C169.282 174.686 169.533 174.8 169.871 174.886L170.695 175.088C171.152 175.199 171.494 175.376 171.721 175.617C171.951 175.859 172.066 176.162 172.066 176.526C172.066 176.834 171.98 177.107 171.81 177.347C171.64 177.586 171.402 177.774 171.096 177.911C170.793 178.046 170.442 178.114 170.042 178.114C169.509 178.114 169.07 177.994 168.724 177.755C168.378 177.513 168.157 177.165 168.06 176.711L168.667 176.562C168.745 176.886 168.898 177.131 169.125 177.297C169.355 177.463 169.657 177.545 170.031 177.545C170.45 177.545 170.785 177.452 171.036 177.265C171.287 177.076 171.412 176.839 171.412 176.555C171.412 176.335 171.339 176.15 171.192 176.001C171.045 175.849 170.823 175.738 170.525 175.667L169.633 175.454C169.16 175.34 168.809 175.16 168.582 174.914C168.355 174.668 168.241 174.362 168.241 173.998C168.241 173.697 168.323 173.433 168.486 173.206C168.65 172.976 168.874 172.796 169.161 172.666C169.447 172.536 169.774 172.471 170.141 172.471C170.641 172.471 171.039 172.585 171.338 172.812C171.638 173.037 171.855 173.347 171.988 173.742ZM174.501 177.006L174.437 177.386C174.397 177.641 174.34 177.923 174.267 178.231C174.193 178.539 174.117 178.831 174.039 179.108C173.961 179.385 173.894 179.607 173.837 179.776H173.35C173.381 179.615 173.42 179.41 173.468 179.161C173.517 178.913 173.568 178.637 173.62 178.334C173.672 178.033 173.72 177.723 173.762 177.403L173.812 177.006H174.501ZM178.38 178.114C177.871 178.114 177.43 177.995 177.059 177.759C176.687 177.519 176.399 177.189 176.196 176.768C175.994 176.344 175.894 175.856 175.894 175.305C175.894 174.755 175.994 174.268 176.196 173.842C176.399 173.413 176.68 173.078 177.037 172.837C177.397 172.593 177.813 172.471 178.284 172.471C178.58 172.471 178.865 172.525 179.14 172.634C179.414 172.741 179.66 172.905 179.878 173.128C180.098 173.348 180.272 173.626 180.4 173.962C180.528 174.296 180.592 174.692 180.592 175.148V175.461H176.331V174.903H179.946C179.946 174.553 179.875 174.238 179.733 173.959C179.593 173.677 179.398 173.455 179.147 173.291C178.898 173.128 178.61 173.046 178.284 173.046C177.938 173.046 177.634 173.138 177.371 173.323C177.108 173.508 176.902 173.752 176.753 174.055C176.606 174.358 176.532 174.689 176.529 175.049V175.383C176.529 175.816 176.604 176.195 176.753 176.519C176.905 176.841 177.119 177.091 177.396 177.268C177.673 177.446 178.001 177.535 178.38 177.535C178.638 177.535 178.864 177.495 179.058 177.414C179.254 177.334 179.419 177.226 179.551 177.091C179.686 176.954 179.788 176.803 179.857 176.64L180.457 176.835C180.374 177.065 180.238 177.277 180.049 177.471C179.862 177.665 179.627 177.821 179.346 177.94C179.066 178.056 178.744 178.114 178.38 178.114ZM184.133 172.545V173.096H181.53V172.545H184.133ZM182.344 171.239H182.979V176.576C182.979 176.803 183.018 176.982 183.096 177.112C183.175 177.24 183.276 177.331 183.402 177.386C183.527 177.438 183.661 177.464 183.803 177.464C183.886 177.464 183.957 177.459 184.016 177.45C184.075 177.438 184.127 177.426 184.172 177.414L184.307 177.986C184.246 178.009 184.17 178.031 184.08 178.05C183.99 178.071 183.879 178.082 183.746 178.082C183.514 178.082 183.291 178.031 183.075 177.929C182.862 177.827 182.687 177.676 182.55 177.474C182.412 177.273 182.344 177.023 182.344 176.725V171.239ZM187.641 178.114C187.153 178.114 186.728 177.992 186.366 177.748C186.006 177.504 185.727 177.17 185.528 176.746C185.329 176.323 185.23 175.84 185.23 175.298C185.23 174.751 185.33 174.264 185.532 173.838C185.735 173.412 186.017 173.078 186.377 172.837C186.737 172.593 187.154 172.471 187.63 172.471C187.995 172.471 188.325 172.542 188.621 172.684C188.917 172.824 189.161 173.021 189.353 173.277C189.547 173.53 189.669 173.826 189.718 174.165H189.079C189.013 173.857 188.853 173.594 188.6 173.376C188.349 173.156 188.029 173.046 187.641 173.046C187.293 173.046 186.985 173.141 186.718 173.33C186.45 173.517 186.241 173.779 186.089 174.115C185.94 174.449 185.865 174.836 185.865 175.276C185.865 175.719 185.939 176.111 186.086 176.452C186.232 176.79 186.438 177.055 186.703 177.247C186.971 177.439 187.283 177.535 187.641 177.535C187.882 177.535 188.103 177.49 188.301 177.4C188.503 177.308 188.671 177.177 188.806 177.009C188.943 176.841 189.035 176.641 189.083 176.409H189.722C189.675 176.738 189.557 177.032 189.37 177.29C189.186 177.545 188.945 177.747 188.65 177.893C188.356 178.04 188.02 178.114 187.641 178.114ZM191.581 178.053C191.441 178.053 191.321 178.004 191.219 177.904C191.119 177.802 191.07 177.682 191.07 177.542C191.07 177.4 191.119 177.279 191.219 177.18C191.321 177.08 191.441 177.031 191.581 177.031C191.723 177.031 191.844 177.08 191.943 177.18C192.043 177.279 192.092 177.4 192.092 177.542C192.092 177.634 192.069 177.719 192.021 177.798C191.976 177.876 191.915 177.938 191.837 177.986C191.761 178.031 191.676 178.053 191.581 178.053Z" fill="#8484A4"/>
<path d="M65.7824 179.833L62.6666 176.718C62.5259 176.577 62.3353 176.499 62.1353 176.499H61.6259C62.4884 175.396 63.001 174.009 63.001 172.499C63.001 168.909 60.0914 166 56.5005 166C52.9096 166 50 168.909 50 172.499C50 176.09 52.9096 178.999 56.5005 178.999C58.01 178.999 59.3976 178.486 60.5008 177.624V178.133C60.5008 178.333 60.5789 178.524 60.7195 178.664L63.8354 181.78C64.1292 182.073 64.6042 182.073 64.8948 181.78L65.7793 180.895C66.0731 180.602 66.0731 180.127 65.7824 179.833ZM56.5005 176.499C54.2909 176.499 52.5002 174.712 52.5002 172.499C52.5002 170.29 54.2878 168.5 56.5005 168.5C58.71 168.5 60.5008 170.287 60.5008 172.499C60.5008 174.709 58.7131 176.499 56.5005 176.499Z" fill="#2A325E"/>
<rect x="246" y="158" width="76" height="34" rx="6" fill="#2A325E"/>
<path d="M272.482 173.545C272.442 173.141 272.263 172.819 271.946 172.58C271.629 172.34 271.23 172.221 270.749 172.221C270.411 172.221 270.113 172.279 269.854 172.395C269.599 172.511 269.398 172.672 269.251 172.878C269.106 173.081 269.034 173.313 269.034 173.574C269.034 173.766 269.076 173.934 269.158 174.078C269.241 174.223 269.353 174.347 269.492 174.451C269.634 174.553 269.791 174.64 269.961 174.714C270.134 174.787 270.308 174.849 270.483 174.898L271.25 175.119C271.482 175.183 271.714 175.264 271.946 175.364C272.178 175.463 272.39 175.589 272.582 175.74C272.776 175.889 272.931 176.073 273.047 176.29C273.165 176.506 273.225 176.765 273.225 177.068C273.225 177.456 273.124 177.806 272.923 178.116C272.721 178.426 272.433 178.672 272.056 178.854C271.68 179.034 271.229 179.124 270.703 179.124C270.208 179.124 269.779 179.043 269.414 178.879C269.05 178.714 268.763 178.485 268.555 178.194C268.346 177.903 268.229 177.565 268.203 177.182H268.885C268.909 177.468 269.003 177.711 269.169 177.91C269.335 178.109 269.55 178.26 269.815 178.364C270.081 178.466 270.377 178.517 270.703 178.517C271.065 178.517 271.387 178.457 271.669 178.336C271.953 178.213 272.176 178.042 272.337 177.825C272.5 177.604 272.582 177.349 272.582 177.058C272.582 176.811 272.518 176.605 272.39 176.44C272.262 176.272 272.083 176.131 271.854 176.017C271.627 175.903 271.363 175.803 271.062 175.715L270.192 175.46C269.621 175.289 269.179 175.054 268.864 174.753C268.549 174.452 268.391 174.069 268.391 173.602C268.391 173.212 268.496 172.868 268.704 172.572C268.915 172.274 269.199 172.042 269.556 171.876C269.916 171.708 270.32 171.624 270.767 171.624C271.219 171.624 271.619 171.707 271.967 171.873C272.315 172.039 272.591 172.267 272.795 172.558C273.001 172.847 273.111 173.176 273.125 173.545H272.482ZM276.896 179.114C276.387 179.114 275.947 178.995 275.575 178.759C275.204 178.519 274.916 178.189 274.712 177.768C274.511 177.344 274.411 176.856 274.411 176.305C274.411 175.755 274.511 175.268 274.712 174.842C274.916 174.413 275.197 174.078 275.554 173.837C275.914 173.593 276.329 173.471 276.801 173.471C277.096 173.471 277.382 173.525 277.656 173.634C277.931 173.741 278.177 173.905 278.395 174.128C278.615 174.348 278.789 174.626 278.917 174.962C279.045 175.296 279.109 175.692 279.109 176.148V176.461H274.847V175.903H278.462C278.462 175.553 278.391 175.238 278.249 174.959C278.11 174.677 277.914 174.455 277.663 174.291C277.415 174.128 277.127 174.046 276.801 174.046C276.455 174.046 276.151 174.138 275.888 174.323C275.625 174.508 275.419 174.752 275.27 175.055C275.123 175.358 275.049 175.689 275.046 176.049V176.383C275.046 176.816 275.121 177.195 275.27 177.519C275.421 177.841 275.636 178.091 275.913 178.268C276.19 178.446 276.518 178.535 276.896 178.535C277.154 178.535 277.381 178.495 277.575 178.414C277.771 178.334 277.936 178.226 278.068 178.091C278.203 177.954 278.305 177.803 278.374 177.64L278.974 177.835C278.891 178.065 278.755 178.277 278.565 178.471C278.378 178.665 278.144 178.821 277.862 178.94C277.583 179.056 277.261 179.114 276.896 179.114ZM282.025 179.124C281.696 179.124 281.395 179.06 281.123 178.933C280.851 178.802 280.634 178.615 280.473 178.371C280.312 178.125 280.232 177.827 280.232 177.477C280.232 177.207 280.283 176.979 280.385 176.795C280.486 176.61 280.631 176.459 280.818 176.34C281.005 176.222 281.226 176.128 281.482 176.06C281.737 175.991 282.019 175.938 282.327 175.9C282.632 175.862 282.89 175.829 283.101 175.8C283.314 175.772 283.476 175.727 283.588 175.665C283.699 175.604 283.755 175.504 283.755 175.367V175.239C283.755 174.868 283.643 174.575 283.421 174.362C283.201 174.147 282.883 174.039 282.469 174.039C282.076 174.039 281.755 174.125 281.507 174.298C281.26 174.471 281.088 174.675 280.988 174.909L280.388 174.692C280.511 174.394 280.682 174.156 280.899 173.979C281.117 173.799 281.361 173.67 281.631 173.592C281.901 173.511 282.174 173.471 282.451 173.471C282.66 173.471 282.876 173.498 283.101 173.553C283.328 173.607 283.539 173.702 283.733 173.837C283.927 173.969 284.085 174.155 284.206 174.394C284.326 174.631 284.387 174.932 284.387 175.296V179H283.755V178.137H283.715C283.64 178.298 283.527 178.454 283.378 178.606C283.229 178.757 283.042 178.882 282.817 178.979C282.592 179.076 282.328 179.124 282.025 179.124ZM282.11 178.545C282.447 178.545 282.738 178.471 282.984 178.322C283.23 178.173 283.42 177.975 283.552 177.729C283.687 177.48 283.755 177.207 283.755 176.908V176.12C283.707 176.165 283.628 176.205 283.517 176.241C283.408 176.276 283.281 176.308 283.137 176.337C282.995 176.363 282.853 176.385 282.71 176.404C282.568 176.423 282.441 176.44 282.327 176.454C282.019 176.492 281.756 176.551 281.539 176.631C281.321 176.712 281.154 176.823 281.038 176.965C280.922 177.105 280.864 177.285 280.864 177.505C280.864 177.836 280.982 178.093 281.219 178.276C281.456 178.455 281.753 178.545 282.11 178.545ZM286.068 179V173.545H286.682V174.384H286.729C286.838 174.109 287.027 173.888 287.297 173.719C287.569 173.549 287.877 173.464 288.22 173.464C288.272 173.464 288.33 173.465 288.394 173.467C288.458 173.47 288.511 173.472 288.554 173.474V174.117C288.525 174.112 288.476 174.105 288.405 174.096C288.334 174.086 288.257 174.082 288.174 174.082C287.89 174.082 287.637 174.142 287.414 174.263C287.194 174.381 287.02 174.546 286.892 174.756C286.764 174.967 286.7 175.207 286.7 175.477V179H286.068ZM291.597 179.114C291.11 179.114 290.685 178.992 290.322 178.748C289.963 178.504 289.683 178.17 289.484 177.746C289.285 177.323 289.186 176.84 289.186 176.298C289.186 175.751 289.287 175.264 289.488 174.838C289.691 174.412 289.973 174.078 290.333 173.837C290.693 173.593 291.111 173.471 291.587 173.471C291.951 173.471 292.281 173.542 292.577 173.684C292.873 173.824 293.117 174.021 293.309 174.277C293.503 174.53 293.625 174.826 293.675 175.165H293.035C292.969 174.857 292.809 174.594 292.556 174.376C292.305 174.156 291.985 174.046 291.597 174.046C291.249 174.046 290.941 174.141 290.674 174.33C290.406 174.517 290.197 174.779 290.045 175.115C289.896 175.449 289.822 175.836 289.822 176.276C289.822 176.719 289.895 177.111 290.042 177.452C290.189 177.79 290.395 178.055 290.66 178.247C290.927 178.439 291.24 178.535 291.597 178.535C291.839 178.535 292.059 178.49 292.258 178.4C292.459 178.308 292.627 178.177 292.762 178.009C292.899 177.841 292.992 177.641 293.039 177.409H293.678C293.631 177.738 293.514 178.032 293.327 178.29C293.142 178.545 292.902 178.747 292.606 178.893C292.312 179.04 291.976 179.114 291.597 179.114ZM295.665 175.591V179H295.033V171.727H295.665V174.401H295.722C295.85 174.12 296.047 173.895 296.315 173.727C296.585 173.558 296.926 173.474 297.338 173.474C297.707 173.474 298.031 173.55 298.311 173.702C298.59 173.853 298.808 174.077 298.964 174.373C299.12 174.669 299.198 175.033 299.198 175.467V179H298.563V175.506C298.563 175.056 298.437 174.702 298.186 174.444C297.938 174.183 297.602 174.053 297.178 174.053C296.887 174.053 296.627 174.115 296.4 174.238C296.173 174.361 295.993 174.539 295.86 174.771C295.73 175 295.665 175.274 295.665 175.591Z" fill="white"/>
</g>
<defs>
<filter id="filter0_d_1_2" x="14" y="134" width="340" height="90" filterUnits="userSpaceOnUse" color-interpolation-filters="sRGB">
<feFlood flood-opacity="0" result="BackgroundImageFix"/>
<feColorMatrix in="SourceAlpha" type="matrix" values="0 0 0 0 0 0 0 0 0 0 0 0 0 0 0 0 0 0 127 0" result="hardAlpha"/>
<feOffset dx="4" dy="4"/>
<feGaussianBlur stdDeviation="10"/>
<feComposite in2="hardAlpha" operator="out"/>
<feColorMatrix type="matrix" values="0 0 0 0 0 0 0 0 0 0 0 0 0 0 0 0 0 0 0.05 0"/>
<feBlend mode="normal" in2="BackgroundImageFix" result="effect1_dropShadow_1_2"/>
<feBlend mode="normal" in="SourceGraphic" in2="effect1_dropShadow_1_2" result="shape"/>
</filter>
<linearGradient id="paint0_linear_1_2" x1="30" y1="150" x2="325.008" y2="220.802" gradientUnits="userSpaceOnUse">
<stop stop-color="#DCCBFF"/>
<stop offset="1" stop-color="#DFBEE2"/>
</linearGradient>
</defs>
</svg>
