<svg width="360" height="360" viewBox="0 0 360 360" fill="none" xmlns="http://www.w3.org/2000/svg">
<rect width="360" height="360" fill="#F3EBFB"/>
<rect x="60" y="155" width="240" height="50" rx="8" fill="#CA8CFA"/>
<g filter="url(#filter0_d_1_2)">
<rect x="80" y="119" width="200" height="122" rx="8" fill="white" shape-rendering="crispEdges"/>
<path d="M107.72 156.084C107.136 156.084 106.608 155.984 106.136 155.784C105.672 155.584 105.304 155.296 105.032 154.92C104.76 154.544 104.62 154.1 104.612 153.588H106.412C106.436 153.932 106.556 154.204 106.772 154.404C106.996 154.604 107.3 154.704 107.684 154.704C108.076 154.704 108.384 154.612 108.608 154.428C108.832 154.236 108.944 153.988 108.944 153.684C108.944 153.436 108.868 153.232 108.716 153.072C108.564 152.912 108.372 152.788 108.14 152.7C107.916 152.604 107.604 152.5 107.204 152.388C106.66 152.228 106.216 152.072 105.872 151.92C105.536 151.76 105.244 151.524 104.996 151.212C104.756 150.892 104.636 150.468 104.636 149.94C104.636 149.444 104.76 149.012 105.008 148.644C105.256 148.276 105.604 147.996 106.052 147.804C106.5 147.604 107.012 147.504 107.588 147.504C108.452 147.504 109.152 147.716 109.688 148.14C110.232 148.556 110.532 149.14 110.588 149.892H108.74C108.724 149.604 108.6 149.368 108.368 149.184C108.144 148.992 107.844 148.896 107.468 148.896C107.14 148.896 106.876 148.98 106.676 149.148C106.484 149.316 106.388 149.56 106.388 149.88C106.388 150.104 106.46 150.292 106.604 150.444C106.756 150.588 106.94 150.708 107.156 150.804C107.38 150.892 107.692 150.996 108.092 151.116C108.636 151.276 109.08 151.436 109.424 151.596C109.768 151.756 110.064 151.996 110.312 152.316C110.56 152.636 110.684 153.056 110.684 153.576C110.684 154.024 110.568 154.44 110.336 154.824C110.104 155.208 109.764 155.516 109.316 155.748C108.868 155.972 108.336 156.084 107.72 156.084ZM115.885 149.256C116.389 149.256 116.837 149.368 117.229 149.592C117.621 149.808 117.925 150.132 118.141 150.564C118.365 150.988 118.477 151.5 118.477 152.1V156H116.797V152.328C116.797 151.8 116.665 151.396 116.401 151.116C116.137 150.828 115.777 150.684 115.321 150.684C114.857 150.684 114.489 150.828 114.217 151.116C113.953 151.396 113.821 151.8 113.821 152.328V156H112.141V147.12H113.821V150.18C114.037 149.892 114.325 149.668 114.685 149.508C115.045 149.34 115.445 149.256 115.885 149.256ZM123.026 156.108C122.386 156.108 121.81 155.968 121.298 155.688C120.786 155.4 120.382 154.996 120.086 154.476C119.798 153.956 119.654 153.356 119.654 152.676C119.654 151.996 119.802 151.396 120.098 150.876C120.402 150.356 120.814 149.956 121.334 149.676C121.854 149.388 122.434 149.244 123.074 149.244C123.714 149.244 124.294 149.388 124.814 149.676C125.334 149.956 125.742 150.356 126.038 150.876C126.342 151.396 126.494 151.996 126.494 152.676C126.494 153.356 126.338 153.956 126.026 154.476C125.722 154.996 125.306 155.4 124.778 155.688C124.258 155.968 123.674 156.108 123.026 156.108ZM123.026 154.644C123.33 154.644 123.614 154.572 123.878 154.428C124.15 154.276 124.366 154.052 124.526 153.756C124.686 153.46 124.766 153.1 124.766 152.676C124.766 152.044 124.598 151.56 124.262 151.224C123.934 150.88 123.53 150.708 123.05 150.708C122.57 150.708 122.166 150.88 121.838 151.224C121.518 151.56 121.358 152.044 121.358 152.676C121.358 153.308 121.514 153.796 121.826 154.14C122.146 154.476 122.546 154.644 123.026 154.644ZM136.942 149.352L134.998 156H133.186L131.974 151.356L130.762 156H128.938L126.982 149.352H128.686L129.862 154.416L131.134 149.352H132.91L134.158 154.404L135.334 149.352H136.942ZM144.395 149.256C145.187 149.256 145.827 149.508 146.315 150.012C146.803 150.508 147.047 151.204 147.047 152.1V156H145.367V152.328C145.367 151.8 145.235 151.396 144.971 151.116C144.707 150.828 144.347 150.684 143.891 150.684C143.427 150.684 143.059 150.828 142.787 151.116C142.523 151.396 142.391 151.8 142.391 152.328V156H140.711V149.352H142.391V150.18C142.615 149.892 142.899 149.668 143.243 149.508C143.595 149.34 143.979 149.256 144.395 149.256ZM151.596 156.108C150.956 156.108 150.38 155.968 149.868 155.688C149.356 155.4 148.952 154.996 148.656 154.476C148.368 153.956 148.224 153.356 148.224 152.676C148.224 151.996 148.372 151.396 148.668 150.876C148.972 150.356 149.384 149.956 149.904 149.676C150.424 149.388 151.004 149.244 151.644 149.244C152.284 149.244 152.864 149.388 153.384 149.676C153.904 149.956 154.312 150.356 154.608 150.876C154.912 151.396 155.064 151.996 155.064 152.676C155.064 153.356 154.908 153.956 154.596 154.476C154.292 154.996 153.876 155.4 153.348 155.688C152.828 155.968 152.244 156.108 151.596 156.108ZM151.596 154.644C151.9 154.644 152.184 154.572 152.448 154.428C152.72 154.276 152.936 154.052 153.096 153.756C153.256 153.46 153.336 153.1 153.336 152.676C153.336 152.044 153.168 151.56 152.832 151.224C152.504 150.88 152.1 150.708 151.62 150.708C151.14 150.708 150.736 150.88 150.408 151.224C150.088 151.56 149.928 152.044 149.928 152.676C149.928 153.308 150.084 153.796 150.396 154.14C150.716 154.476 151.116 154.644 151.596 154.644ZM158.253 150.732V153.948C158.253 154.172 158.305 154.336 158.409 154.44C158.521 154.536 158.705 154.584 158.961 154.584H159.741V156H158.685C157.269 156 156.561 155.312 156.561 153.936V150.732H155.769V149.352H156.561V147.708H158.253V149.352H159.741V150.732H158.253ZM161.801 148.56C161.505 148.56 161.257 148.468 161.057 148.284C160.865 148.092 160.769 147.856 160.769 147.576C160.769 147.296 160.865 147.064 161.057 146.88C161.257 146.688 161.505 146.592 161.801 146.592C162.097 146.592 162.341 146.688 162.533 146.88C162.733 147.064 162.833 147.296 162.833 147.576C162.833 147.856 162.733 148.092 162.533 148.284C162.341 148.468 162.097 148.56 161.801 148.56ZM162.629 149.352V156H160.949V149.352H162.629ZM167.337 150.732H166.173V156H164.469V150.732H163.713V149.352H164.469V149.016C164.469 148.2 164.701 147.6 165.165 147.216C165.629 146.832 166.329 146.652 167.265 146.676V148.092C166.857 148.084 166.573 148.152 166.413 148.296C166.253 148.44 166.173 148.7 166.173 149.076V149.352H167.337V150.732ZM169.278 148.56C168.982 148.56 168.734 148.468 168.534 148.284C168.342 148.092 168.246 147.856 168.246 147.576C168.246 147.296 168.342 147.064 168.534 146.88C168.734 146.688 168.982 146.592 169.278 146.592C169.574 146.592 169.818 146.688 170.01 146.88C170.21 147.064 170.31 147.296 170.31 147.576C170.31 147.856 170.21 148.092 170.01 148.284C169.818 148.468 169.574 148.56 169.278 148.56ZM170.106 149.352V156H168.426V149.352H170.106ZM171.333 152.676C171.333 151.988 171.474 151.388 171.754 150.876C172.034 150.356 172.422 149.956 172.918 149.676C173.414 149.388 173.982 149.244 174.622 149.244C175.446 149.244 176.126 149.452 176.662 149.868C177.206 150.276 177.57 150.852 177.754 151.596H175.942C175.846 151.308 175.682 151.084 175.45 150.924C175.226 150.756 174.946 150.672 174.61 150.672C174.13 150.672 173.75 150.848 173.47 151.2C173.19 151.544 173.05 152.036 173.05 152.676C173.05 153.308 173.19 153.8 173.47 154.152C173.75 154.496 174.13 154.668 174.61 154.668C175.29 154.668 175.734 154.364 175.942 153.756H177.754C177.57 154.476 177.206 155.048 176.662 155.472C176.118 155.896 175.438 156.108 174.622 156.108C173.982 156.108 173.414 155.968 172.918 155.688C172.422 155.4 172.034 155 171.754 154.488C171.474 153.968 171.333 153.364 171.333 152.676ZM178.552 152.652C178.552 151.98 178.684 151.384 178.948 150.864C179.22 150.344 179.584 149.944 180.04 149.664C180.504 149.384 181.02 149.244 181.588 149.244C182.084 149.244 182.516 149.344 182.884 149.544C183.26 149.744 183.56 149.996 183.784 150.3V149.352H185.476V156H183.784V155.028C183.568 155.34 183.268 155.6 182.884 155.808C182.508 156.008 182.072 156.108 181.576 156.108C181.016 156.108 180.504 155.964 180.04 155.676C179.584 155.388 179.22 154.984 178.948 154.464C178.684 153.936 178.552 153.332 178.552 152.652ZM183.784 152.676C183.784 152.268 183.704 151.92 183.544 151.632C183.384 151.336 183.168 151.112 182.896 150.96C182.624 150.8 182.332 150.72 182.02 150.72C181.708 150.72 181.42 150.796 181.156 150.948C180.892 151.1 180.676 151.324 180.508 151.62C180.348 151.908 180.268 152.252 180.268 152.652C180.268 153.052 180.348 153.404 180.508 153.708C180.676 154.004 180.892 154.232 181.156 154.392C181.428 154.552 181.716 154.632 182.02 154.632C182.332 154.632 182.624 154.556 182.896 154.404C183.168 154.244 183.384 154.02 183.544 153.732C183.704 153.436 183.784 153.084 183.784 152.676ZM189.073 150.732V153.948C189.073 154.172 189.125 154.336 189.229 154.44C189.341 154.536 189.525 154.584 189.781 154.584H190.561V156H189.505C188.089 156 187.381 155.312 187.381 153.936V150.732H186.589V149.352H187.381V147.708H189.073V149.352H190.561V150.732H189.073ZM192.621 148.56C192.325 148.56 192.077 148.468 191.877 148.284C191.685 148.092 191.589 147.856 191.589 147.576C191.589 147.296 191.685 147.064 191.877 146.88C192.077 146.688 192.325 146.592 192.621 146.592C192.917 146.592 193.161 146.688 193.353 146.88C193.553 147.064 193.653 147.296 193.653 147.576C193.653 147.856 193.553 148.092 193.353 148.284C193.161 148.468 192.917 148.56 192.621 148.56ZM193.449 149.352V156H191.769V149.352H193.449ZM198.061 156.108C197.421 156.108 196.845 155.968 196.333 155.688C195.821 155.4 195.417 154.996 195.121 154.476C194.833 153.956 194.689 153.356 194.689 152.676C194.689 151.996 194.837 151.396 195.133 150.876C195.437 150.356 195.849 149.956 196.369 149.676C196.889 149.388 197.469 149.244 198.109 149.244C198.749 149.244 199.329 149.388 199.849 149.676C200.369 149.956 200.777 150.356 201.073 150.876C201.377 151.396 201.529 151.996 201.529 152.676C201.529 153.356 201.373 153.956 201.061 154.476C200.757 154.996 200.341 155.4 199.813 155.688C199.293 155.968 198.709 156.108 198.061 156.108ZM198.061 154.644C198.365 154.644 198.649 154.572 198.913 154.428C199.185 154.276 199.401 154.052 199.561 153.756C199.721 153.46 199.801 153.1 199.801 152.676C199.801 152.044 199.633 151.56 199.297 151.224C198.969 150.88 198.565 150.708 198.085 150.708C197.605 150.708 197.201 150.88 196.873 151.224C196.553 151.56 196.393 152.044 196.393 152.676C196.393 153.308 196.549 153.796 196.861 154.14C197.181 154.476 197.581 154.644 198.061 154.644ZM206.446 149.256C207.238 149.256 207.878 149.508 208.366 150.012C208.854 150.508 209.098 151.204 209.098 152.1V156H207.418V152.328C207.418 151.8 207.286 151.396 207.022 151.116C206.758 150.828 206.398 150.684 205.942 150.684C205.478 150.684 205.11 150.828 204.838 151.116C204.574 151.396 204.442 151.8 204.442 152.328V156H202.762V149.352H204.442V150.18C204.666 149.892 204.95 149.668 205.294 149.508C205.646 149.34 206.03 149.256 206.446 149.256ZM213.239 156.108C212.695 156.108 212.207 156.012 211.775 155.82C211.343 155.62 210.999 155.352 210.743 155.016C210.495 154.68 210.359 154.308 210.335 153.9H212.027C212.059 154.156 212.183 154.368 212.399 154.536C212.623 154.704 212.899 154.788 213.227 154.788C213.547 154.788 213.795 154.724 213.971 154.596C214.155 154.468 214.247 154.304 214.247 154.104C214.247 153.888 214.135 153.728 213.911 153.624C213.695 153.512 213.347 153.392 212.867 153.264C212.371 153.144 211.963 153.02 211.643 152.892C211.331 152.764 211.059 152.568 210.827 152.304C210.603 152.04 210.491 151.684 210.491 151.236C210.491 150.868 210.595 150.532 210.803 150.228C211.019 149.924 211.323 149.684 211.715 149.508C212.115 149.332 212.583 149.244 213.119 149.244C213.911 149.244 214.543 149.444 215.015 149.844C215.487 150.236 215.747 150.768 215.795 151.44H214.187C214.163 151.176 214.051 150.968 213.851 150.816C213.659 150.656 213.399 150.576 213.071 150.576C212.767 150.576 212.531 150.632 212.363 150.744C212.203 150.856 212.123 151.012 212.123 151.212C212.123 151.436 212.235 151.608 212.459 151.728C212.683 151.84 213.031 151.956 213.503 152.076C213.983 152.196 214.379 152.32 214.691 152.448C215.003 152.576 215.271 152.776 215.495 153.048C215.727 153.312 215.847 153.664 215.855 154.104C215.855 154.488 215.747 154.832 215.531 155.136C215.323 155.44 215.019 155.68 214.619 155.856C214.227 156.024 213.767 156.108 213.239 156.108ZM223.142 150.732H221.978V156H220.274V150.732H219.518V149.352H220.274V149.016C220.274 148.2 220.506 147.6 220.97 147.216C221.434 146.832 222.134 146.652 223.07 146.676V148.092C222.662 148.084 222.378 148.152 222.218 148.296C222.058 148.44 221.978 148.7 221.978 149.076V149.352H223.142V150.732ZM227.182 156.108C226.542 156.108 225.966 155.968 225.454 155.688C224.942 155.4 224.538 154.996 224.242 154.476C223.954 153.956 223.81 153.356 223.81 152.676C223.81 151.996 223.958 151.396 224.254 150.876C224.558 150.356 224.97 149.956 225.49 149.676C226.01 149.388 226.59 149.244 227.23 149.244C227.87 149.244 228.45 149.388 228.97 149.676C229.49 149.956 229.898 150.356 230.194 150.876C230.498 151.396 230.65 151.996 230.65 152.676C230.65 153.356 230.494 153.956 230.182 154.476C229.878 154.996 229.462 155.4 228.934 155.688C228.414 155.968 227.83 156.108 227.182 156.108ZM227.182 154.644C227.486 154.644 227.77 154.572 228.034 154.428C228.306 154.276 228.522 154.052 228.682 153.756C228.842 153.46 228.922 153.1 228.922 152.676C228.922 152.044 228.754 151.56 228.418 151.224C228.09 150.88 227.686 150.708 227.206 150.708C226.726 150.708 226.322 150.88 225.994 151.224C225.674 151.56 225.514 152.044 225.514 152.676C225.514 153.308 225.67 153.796 225.982 154.14C226.302 154.476 226.702 154.644 227.182 154.644ZM233.563 150.384C233.779 150.032 234.059 149.756 234.403 149.556C234.755 149.356 235.155 149.256 235.603 149.256V151.02H235.159C234.631 151.02 234.231 151.144 233.959 151.392C233.695 151.64 233.563 152.072 233.563 152.688V156H231.883V149.352H233.563V150.384Z" fill="#39355C"/>
<rect x="104" y="171" width="20" height="20" rx="6" fill="url(#paint0_linear_1_2)"/>
<path d="M119.769 183.704C119.252 183.148 118.284 182.312 118.284 179.571C118.284 177.49 116.824 175.824 114.857 175.415V174.857C114.857 174.384 114.473 174 114 174C113.527 174 113.143 174.384 113.143 174.857V175.415C111.176 175.824 109.716 177.49 109.716 179.571C109.716 182.312 108.748 183.148 108.231 183.704C108.07 183.877 107.999 184.083 108 184.286C108.003 184.725 108.348 185.143 108.86 185.143H119.14C119.652 185.143 119.997 184.725 120 184.286C120.001 184.083 119.93 183.877 119.769 183.704ZM109.809 183.857C110.377 183.108 110.999 181.866 111.002 179.587C111.002 179.582 111 179.577 111 179.571C111 177.914 112.343 176.571 114 176.571C115.657 176.571 117 177.914 117 179.571C117 179.577 116.998 179.582 116.998 179.587C117.001 181.866 117.623 183.108 118.191 183.857H109.809ZM114 187.714C114.946 187.714 115.713 186.947 115.713 186H112.287C112.287 186.947 113.054 187.714 114 187.714Z" fill="white"/>
<path d="M129.602 184L128.273 179.636H128.977L129.92 182.977H129.966L130.898 179.636H131.614L132.534 182.966H132.58L133.523 179.636H134.227L132.898 184H132.239L131.284 180.648H131.216L130.261 184H129.602ZM136.102 184L134.773 179.636H135.477L136.42 182.977H136.466L137.398 179.636H138.114L139.034 182.966H139.08L140.023 179.636H140.727L139.398 184H138.739L137.784 180.648H137.716L136.761 184H136.102ZM142.602 184L141.273 179.636H141.977L142.92 182.977H142.966L143.898 179.636H144.614L145.534 182.966H145.58L146.523 179.636H147.227L145.898 184H145.239L144.284 180.648H144.216L143.261 184H142.602ZM148.009 184.045C147.868 184.045 147.748 183.995 147.648 183.895C147.547 183.795 147.497 183.674 147.497 183.534C147.497 183.394 147.547 183.274 147.648 183.173C147.748 183.073 147.868 183.023 148.009 183.023C148.149 183.023 148.269 183.073 148.369 183.173C148.47 183.274 148.52 183.394 148.52 183.534C148.52 183.627 148.496 183.712 148.449 183.79C148.403 183.867 148.342 183.93 148.264 183.977C148.188 184.023 148.103 184.045 148.009 184.045ZM150.712 184L149.382 179.636H150.087L151.03 182.977H151.075L152.007 179.636H152.723L153.643 182.966H153.689L154.632 179.636H155.337L154.007 184H153.348L152.393 180.648H152.325L151.371 184H150.712ZM157.904 184.091C157.484 184.091 157.121 183.998 156.816 183.812C156.513 183.625 156.279 183.364 156.114 183.028C155.951 182.691 155.87 182.299 155.87 181.852C155.87 181.405 155.951 181.011 156.114 180.67C156.279 180.328 156.508 180.061 156.802 179.869C157.097 179.676 157.442 179.58 157.836 179.58C158.063 179.58 158.288 179.617 158.509 179.693C158.731 179.769 158.933 179.892 159.114 180.062C159.296 180.231 159.441 180.455 159.549 180.733C159.657 181.011 159.711 181.354 159.711 181.761V182.045H156.347V181.466H159.029C159.029 181.22 158.98 181 158.881 180.807C158.785 180.614 158.647 180.461 158.467 180.349C158.289 180.238 158.078 180.182 157.836 180.182C157.569 180.182 157.338 180.248 157.143 180.381C156.95 180.511 156.801 180.682 156.697 180.892C156.593 181.102 156.54 181.328 156.54 181.568V181.955C156.54 182.284 156.597 182.563 156.711 182.793C156.826 183.02 156.987 183.193 157.191 183.312C157.396 183.43 157.633 183.489 157.904 183.489C158.08 183.489 158.239 183.464 158.381 183.415C158.525 183.364 158.649 183.288 158.754 183.188C158.858 183.085 158.938 182.958 158.995 182.807L159.643 182.989C159.575 183.208 159.46 183.402 159.299 183.568C159.138 183.733 158.939 183.862 158.702 183.955C158.466 184.045 158.2 184.091 157.904 184.091ZM160.822 184V178.182H161.492V180.33H161.549C161.598 180.254 161.666 180.157 161.754 180.04C161.843 179.92 161.969 179.814 162.134 179.722C162.301 179.627 162.526 179.58 162.81 179.58C163.178 179.58 163.502 179.671 163.782 179.855C164.062 180.039 164.281 180.299 164.438 180.636C164.595 180.973 164.674 181.371 164.674 181.83C164.674 182.292 164.595 182.692 164.438 183.031C164.281 183.368 164.063 183.63 163.785 183.815C163.506 183.999 163.185 184.091 162.822 184.091C162.541 184.091 162.317 184.045 162.148 183.952C161.98 183.857 161.85 183.75 161.759 183.631C161.668 183.509 161.598 183.409 161.549 183.33H161.469V184H160.822ZM161.481 181.818C161.481 182.148 161.529 182.438 161.626 182.69C161.722 182.94 161.863 183.136 162.049 183.278C162.235 183.419 162.462 183.489 162.731 183.489C163.011 183.489 163.245 183.415 163.433 183.267C163.622 183.117 163.764 182.917 163.859 182.665C163.955 182.411 164.004 182.129 164.004 181.818C164.004 181.511 163.956 181.235 163.862 180.989C163.769 180.741 163.628 180.545 163.438 180.401C163.251 180.255 163.015 180.182 162.731 180.182C162.458 180.182 162.229 180.251 162.043 180.389C161.858 180.526 161.718 180.717 161.623 180.963C161.528 181.207 161.481 181.492 161.481 181.818ZM168.79 180.614L168.188 180.784C168.15 180.684 168.094 180.586 168.021 180.491C167.949 180.395 167.85 180.315 167.725 180.253C167.6 180.19 167.44 180.159 167.245 180.159C166.978 180.159 166.755 180.221 166.577 180.344C166.401 180.465 166.313 180.619 166.313 180.807C166.313 180.973 166.374 181.105 166.495 181.202C166.616 181.298 166.806 181.379 167.063 181.443L167.711 181.602C168.101 181.697 168.392 181.842 168.583 182.037C168.774 182.23 168.87 182.479 168.87 182.784C168.87 183.034 168.798 183.258 168.654 183.455C168.512 183.652 168.313 183.807 168.058 183.92C167.802 184.034 167.504 184.091 167.165 184.091C166.72 184.091 166.352 183.994 166.06 183.801C165.769 183.608 165.584 183.326 165.506 182.955L166.143 182.795C166.203 183.03 166.318 183.206 166.487 183.324C166.657 183.441 166.879 183.5 167.154 183.5C167.467 183.5 167.715 183.434 167.898 183.301C168.084 183.167 168.177 183.006 168.177 182.818C168.177 182.667 168.124 182.54 168.018 182.438C167.912 182.333 167.749 182.256 167.529 182.205L166.802 182.034C166.402 181.939 166.109 181.793 165.921 181.594C165.736 181.393 165.643 181.142 165.643 180.841C165.643 180.595 165.712 180.377 165.85 180.188C165.99 179.998 166.181 179.849 166.421 179.741C166.664 179.634 166.938 179.58 167.245 179.58C167.677 179.58 168.016 179.674 168.262 179.864C168.51 180.053 168.686 180.303 168.79 180.614ZM169.879 184V179.636H170.55V184H169.879ZM170.22 178.909C170.089 178.909 169.977 178.865 169.882 178.776C169.789 178.687 169.743 178.58 169.743 178.455C169.743 178.33 169.789 178.223 169.882 178.134C169.977 178.045 170.089 178 170.22 178C170.351 178 170.463 178.045 170.555 178.134C170.65 178.223 170.697 178.33 170.697 178.455C170.697 178.58 170.65 178.687 170.555 178.776C170.463 178.865 170.351 178.909 170.22 178.909ZM173.675 179.636V180.205H171.414V179.636H173.675ZM172.073 178.591H172.744V182.75C172.744 182.939 172.771 183.081 172.826 183.176C172.883 183.269 172.955 183.331 173.042 183.364C173.131 183.394 173.225 183.409 173.323 183.409C173.397 183.409 173.458 183.405 173.505 183.398C173.552 183.388 173.59 183.381 173.619 183.375L173.755 183.977C173.71 183.994 173.646 184.011 173.565 184.028C173.483 184.047 173.38 184.057 173.255 184.057C173.066 184.057 172.88 184.016 172.698 183.935C172.518 183.853 172.369 183.729 172.249 183.562C172.132 183.396 172.073 183.186 172.073 182.932V178.591ZM176.467 184.091C176.046 184.091 175.683 183.998 175.379 183.812C175.076 183.625 174.842 183.364 174.677 183.028C174.514 182.691 174.433 182.299 174.433 181.852C174.433 181.405 174.514 181.011 174.677 180.67C174.842 180.328 175.071 180.061 175.364 179.869C175.66 179.676 176.004 179.58 176.398 179.58C176.626 179.58 176.85 179.617 177.072 179.693C177.293 179.769 177.495 179.892 177.677 180.062C177.859 180.231 178.004 180.455 178.112 180.733C178.219 181.011 178.273 181.354 178.273 181.761V182.045H174.91V181.466H177.592C177.592 181.22 177.542 181 177.444 180.807C177.347 180.614 177.209 180.461 177.029 180.349C176.851 180.238 176.641 180.182 176.398 180.182C176.131 180.182 175.9 180.248 175.705 180.381C175.512 180.511 175.363 180.682 175.259 180.892C175.155 181.102 175.103 181.328 175.103 181.568V181.955C175.103 182.284 175.16 182.563 175.273 182.793C175.389 183.02 175.549 183.193 175.754 183.312C175.958 183.43 176.196 183.489 176.467 183.489C176.643 183.489 176.802 183.464 176.944 183.415C177.088 183.364 177.212 183.288 177.316 183.188C177.42 183.085 177.501 182.958 177.558 182.807L178.205 182.989C178.137 183.208 178.022 183.402 177.862 183.568C177.701 183.733 177.502 183.862 177.265 183.955C177.028 184.045 176.762 184.091 176.467 184.091ZM179.782 184.045C179.642 184.045 179.522 183.995 179.421 183.895C179.321 183.795 179.271 183.674 179.271 183.534C179.271 183.394 179.321 183.274 179.421 183.173C179.522 183.073 179.642 183.023 179.782 183.023C179.922 183.023 180.042 183.073 180.143 183.173C180.243 183.274 180.293 183.394 180.293 183.534C180.293 183.627 180.27 183.712 180.222 183.79C180.177 183.867 180.115 183.93 180.038 183.977C179.962 184.023 179.877 184.045 179.782 184.045ZM183.269 184.091C182.86 184.091 182.508 183.994 182.212 183.801C181.917 183.608 181.69 183.342 181.531 183.003C181.371 182.664 181.292 182.277 181.292 181.841C181.292 181.398 181.373 181.007 181.536 180.668C181.701 180.327 181.93 180.061 182.224 179.869C182.519 179.676 182.864 179.58 183.258 179.58C183.565 179.58 183.841 179.636 184.087 179.75C184.334 179.864 184.535 180.023 184.692 180.227C184.85 180.432 184.947 180.67 184.985 180.943H184.315C184.263 180.744 184.15 180.568 183.974 180.415C183.799 180.259 183.565 180.182 183.269 180.182C183.008 180.182 182.779 180.25 182.582 180.386C182.387 180.521 182.234 180.711 182.124 180.957C182.016 181.202 181.962 181.489 181.962 181.818C181.962 182.155 182.015 182.449 182.121 182.699C182.229 182.949 182.381 183.143 182.576 183.281C182.773 183.42 183.004 183.489 183.269 183.489C183.443 183.489 183.602 183.458 183.744 183.398C183.886 183.337 184.006 183.25 184.104 183.136C184.203 183.023 184.273 182.886 184.315 182.727H184.985C184.947 182.985 184.853 183.217 184.704 183.423C184.556 183.628 184.36 183.791 184.116 183.912C183.873 184.031 183.591 184.091 183.269 184.091ZM187.738 184.091C187.344 184.091 186.998 183.997 186.701 183.81C186.406 183.622 186.174 183.36 186.008 183.023C185.843 182.686 185.761 182.292 185.761 181.841C185.761 181.386 185.843 180.99 186.008 180.651C186.174 180.312 186.406 180.048 186.701 179.861C186.998 179.673 187.344 179.58 187.738 179.58C188.132 179.58 188.477 179.673 188.772 179.861C189.069 180.048 189.3 180.312 189.465 180.651C189.632 180.99 189.715 181.386 189.715 181.841C189.715 182.292 189.632 182.686 189.465 183.023C189.3 183.36 189.069 183.622 188.772 183.81C188.477 183.997 188.132 184.091 187.738 184.091ZM187.738 183.489C188.037 183.489 188.283 183.412 188.477 183.259C188.67 183.105 188.813 182.903 188.906 182.653C188.998 182.403 189.045 182.133 189.045 181.841C189.045 181.549 188.998 181.277 188.906 181.026C188.813 180.774 188.67 180.57 188.477 180.415C188.283 180.259 188.037 180.182 187.738 180.182C187.439 180.182 187.192 180.259 186.999 180.415C186.806 180.57 186.663 180.774 186.57 181.026C186.478 181.277 186.431 181.549 186.431 181.841C186.431 182.133 186.478 182.403 186.57 182.653C186.663 182.903 186.806 183.105 186.999 183.259C187.192 183.412 187.439 183.489 187.738 183.489ZM190.739 184V179.636H191.386V180.318H191.443C191.534 180.085 191.681 179.904 191.884 179.776C192.086 179.645 192.33 179.58 192.614 179.58C192.902 179.58 193.141 179.645 193.332 179.776C193.526 179.904 193.676 180.085 193.784 180.318H193.83C193.941 180.093 194.109 179.914 194.332 179.781C194.556 179.647 194.824 179.58 195.136 179.58C195.527 179.58 195.846 179.702 196.094 179.946C196.342 180.188 196.466 180.566 196.466 181.08V184H195.795V181.08C195.795 180.758 195.707 180.527 195.531 180.389C195.355 180.251 195.148 180.182 194.909 180.182C194.602 180.182 194.365 180.275 194.196 180.46C194.027 180.644 193.943 180.877 193.943 181.159V184H193.261V181.011C193.261 180.763 193.181 180.563 193.02 180.412C192.859 180.259 192.652 180.182 192.398 180.182C192.223 180.182 192.061 180.228 191.909 180.321C191.759 180.414 191.638 180.543 191.545 180.707C191.455 180.87 191.409 181.059 191.409 181.273V184H190.739Z" fill="#39355C"/>
<rect width="152" height="16" transform="translate(104 201)" fill="white"/>
<rect x="152.25" y="201.25" width="47.5" height="15.5" rx="3.75" stroke="#FC7C7C" stroke-width="0.5"/>
<path d="M168.408 209.128C168.611 209.16 168.795 209.243 168.96 209.376C169.131 209.509 169.264 209.675 169.36 209.872C169.461 210.069 169.512 210.28 169.512 210.504C169.512 210.787 169.44 211.043 169.296 211.272C169.152 211.496 168.941 211.675 168.664 211.808C168.392 211.936 168.069 212 167.696 212H165.616V206.424H167.616C167.995 206.424 168.317 206.488 168.584 206.616C168.851 206.739 169.051 206.907 169.184 207.12C169.317 207.333 169.384 207.573 169.384 207.84C169.384 208.171 169.293 208.445 169.112 208.664C168.936 208.877 168.701 209.032 168.408 209.128ZM166.344 208.832H167.568C167.909 208.832 168.173 208.752 168.36 208.592C168.547 208.432 168.64 208.211 168.64 207.928C168.64 207.645 168.547 207.424 168.36 207.264C168.173 207.104 167.904 207.024 167.552 207.024H166.344V208.832ZM167.632 211.4C167.995 211.4 168.277 211.315 168.48 211.144C168.683 210.973 168.784 210.736 168.784 210.432C168.784 210.123 168.677 209.88 168.464 209.704C168.251 209.523 167.965 209.432 167.608 209.432H166.344V211.4H167.632ZM171.25 206.08V212H170.522V206.08H171.25ZM174.403 212.072C173.992 212.072 173.619 211.979 173.283 211.792C172.952 211.605 172.691 211.341 172.499 211C172.312 210.653 172.219 210.253 172.219 209.8C172.219 209.352 172.315 208.957 172.507 208.616C172.704 208.269 172.971 208.005 173.307 207.824C173.643 207.637 174.019 207.544 174.435 207.544C174.851 207.544 175.227 207.637 175.563 207.824C175.899 208.005 176.163 208.267 176.355 208.608C176.552 208.949 176.651 209.347 176.651 209.8C176.651 210.253 176.55 210.653 176.347 211C176.15 211.341 175.88 211.605 175.539 211.792C175.198 211.979 174.819 212.072 174.403 212.072ZM174.403 211.432C174.664 211.432 174.91 211.371 175.139 211.248C175.368 211.125 175.552 210.941 175.691 210.696C175.835 210.451 175.907 210.152 175.907 209.8C175.907 209.448 175.838 209.149 175.699 208.904C175.56 208.659 175.379 208.477 175.155 208.36C174.931 208.237 174.688 208.176 174.427 208.176C174.16 208.176 173.915 208.237 173.691 208.36C173.472 208.477 173.296 208.659 173.163 208.904C173.03 209.149 172.963 209.448 172.963 209.8C172.963 210.157 173.027 210.459 173.155 210.704C173.288 210.949 173.464 211.133 173.683 211.256C173.902 211.373 174.142 211.432 174.403 211.432ZM177.336 209.8C177.336 209.347 177.427 208.952 177.608 208.616C177.79 208.275 178.04 208.011 178.36 207.824C178.686 207.637 179.056 207.544 179.472 207.544C180.011 207.544 180.454 207.675 180.8 207.936C181.152 208.197 181.384 208.56 181.496 209.024H180.712C180.638 208.757 180.491 208.547 180.272 208.392C180.059 208.237 179.792 208.16 179.472 208.16C179.056 208.16 178.72 208.304 178.464 208.592C178.208 208.875 178.08 209.277 178.08 209.8C178.08 210.328 178.208 210.736 178.464 211.024C178.72 211.312 179.056 211.456 179.472 211.456C179.792 211.456 180.059 211.381 180.272 211.232C180.486 211.083 180.632 210.869 180.712 210.592H181.496C181.379 211.04 181.144 211.4 180.792 211.672C180.44 211.939 180 212.072 179.472 212.072C179.056 212.072 178.686 211.979 178.36 211.792C178.04 211.605 177.79 211.341 177.608 211C177.427 210.659 177.336 210.259 177.336 209.8ZM184.916 212L183.196 210.064V212H182.468V206.08H183.196V209.56L184.884 207.616H185.9L183.836 209.8L185.908 212H184.916Z" fill="#FC7C7C"/>
<rect x="208.25" y="201.25" width="47.5" height="15.5" rx="3.75" stroke="#44A05E" stroke-width="0.5"/>
<path d="M224.912 210.76H222.48L222.032 212H221.264L223.28 206.456H224.12L226.128 212H225.36L224.912 210.76ZM224.704 210.168L223.696 207.352L222.688 210.168H224.704ZM227.735 206.08V212H227.007V206.08H227.735ZM229.703 206.08V212H228.975V206.08H229.703ZM232.856 212.072C232.445 212.072 232.072 211.979 231.736 211.792C231.405 211.605 231.144 211.341 230.952 211C230.765 210.653 230.672 210.253 230.672 209.8C230.672 209.352 230.768 208.957 230.96 208.616C231.157 208.269 231.424 208.005 231.76 207.824C232.096 207.637 232.472 207.544 232.888 207.544C233.304 207.544 233.68 207.637 234.016 207.824C234.352 208.005 234.616 208.267 234.808 208.608C235.005 208.949 235.104 209.347 235.104 209.8C235.104 210.253 235.003 210.653 234.8 211C234.603 211.341 234.333 211.605 233.992 211.792C233.651 211.979 233.272 212.072 232.856 212.072ZM232.856 211.432C233.117 211.432 233.363 211.371 233.592 211.248C233.821 211.125 234.005 210.941 234.144 210.696C234.288 210.451 234.36 210.152 234.36 209.8C234.36 209.448 234.291 209.149 234.152 208.904C234.013 208.659 233.832 208.477 233.608 208.36C233.384 208.237 233.141 208.176 232.88 208.176C232.613 208.176 232.368 208.237 232.144 208.36C231.925 208.477 231.749 208.659 231.616 208.904C231.483 209.149 231.416 209.448 231.416 209.8C231.416 210.157 231.48 210.459 231.608 210.704C231.741 210.949 231.917 211.133 232.136 211.256C232.355 211.373 232.595 211.432 232.856 211.432ZM241.901 207.616L240.533 212H239.781L238.725 208.52L237.669 212H236.917L235.541 207.616H236.285L237.293 211.296L238.381 207.616H239.125L240.189 211.304L241.181 207.616H241.901Z" fill="#44A05E"/>
<circle cx="265" cy="134" r="9.75" stroke="#D13D51" stroke-width="0.5"/>
<path d="M266.516 134L268.791 131.726C269.07 131.447 269.07 130.994 268.791 130.715L268.285 130.209C268.006 129.93 267.554 129.93 267.274 130.209L265 132.484L262.726 130.209C262.447 129.93 261.994 129.93 261.715 130.209L261.209 130.715C260.93 130.994 260.93 131.446 261.209 131.726L263.484 134L261.209 136.274C260.93 136.553 260.93 137.006 261.209 137.285L261.715 137.791C261.994 138.07 262.447 138.07 262.726 137.791L265 135.516L267.274 137.791C267.553 138.07 268.006 138.07 268.285 137.791L268.791 137.285C269.07 137.006 269.07 136.554 268.791 136.274L266.516 134Z" fill="#D13D51"/>
</g>
<defs>
<filter id="filter0_d_1_2" x="60" y="103" width="240" height="162" filterUnits="userSpaceOnUse" color-interpolation-filters="sRGB">
<feFlood flood-opacity="0" result="BackgroundImageFix"/>
<feColorMatrix in="SourceAlpha" type="matrix" values="0 0 0 0 0 0 0 0 0 0 0 0 0 0 0 0 0 0 127 0" result="hardAlpha"/>
<feOffset dy="4"/>
<feGaussianBlur stdDeviation="10"/>
<feComposite in2="hardAlpha" operator="out"/>
<feColorMatrix type="matrix" values="0 0 0 0 0 0 0 0 0 0 0 0 0 0 0 0 0 0 0.15 0"/>
<feBlend mode="normal" in2="BackgroundImageFix" result="effect1_dropShadow_1_2"/>
<feBlend mode="normal" in="SourceGraphic" in2="effect1_dropShadow_1_2" result="shape"/>
</filter>
<linearGradient id="paint0_linear_1_2" x1="104" y1="171" x2="122.214" y2="191" gradientUnits="userSpaceOnUse">
<stop stop-color="#7481F9"/>
<stop offset="1" stop-color="#EF38FF"/>
</linearGradient>
</defs>
</svg>
